%TF.GenerationSoftware,KiCad,Pcbnew,10.0.3*%
%TF.CreationDate,2026-06-01T00:12:51+02:00*%
%TF.ProjectId,PCB,5043422e-6b69-4636-9164-5f7063625858,rev?*%
%TF.SameCoordinates,Original*%
%TF.FileFunction,Profile,NP*%
%FSLAX46Y46*%
G04 Gerber Fmt 4.6, Leading zero omitted, Abs format (unit mm)*
G04 Created by KiCad (PCBNEW 10.0.3) date 2026-06-01 00:12:51*
%MOMM*%
%LPD*%
G01*
G04 APERTURE LIST*
%TA.AperFunction,Profile*%
%ADD10C,0.050000*%
%TD*%
G04 APERTURE END LIST*
D10*
X60000000Y-167000000D02*
X61000000Y-28000000D01*
X75000000Y-28000000D02*
X61000000Y-28000000D01*
X75000000Y-28000000D02*
X75000000Y-66000000D01*
X75000000Y-66000000D02*
X209000000Y-66000000D01*
X78000000Y-132000000D02*
X78000000Y-167000000D01*
X78000000Y-132000000D02*
X210000000Y-132000000D01*
X78000000Y-167000000D02*
X60000000Y-167000000D01*
X140000000Y-78000000D02*
G75*
G02*
X134000000Y-78000000I-3000000J0D01*
G01*
X134000000Y-78000000D02*
G75*
G02*
X140000000Y-78000000I3000000J0D01*
G01*
X140000000Y-123000000D02*
G75*
G02*
X134000000Y-123000000I-3000000J0D01*
G01*
X134000000Y-123000000D02*
G75*
G02*
X140000000Y-123000000I3000000J0D01*
G01*
X209000000Y-66000000D02*
X209000000Y-86000000D01*
X209000000Y-86000000D02*
X241000000Y-86000000D01*
X210000000Y-110000000D02*
X210000000Y-132000000D01*
X240000000Y-110000000D02*
X210000000Y-110000000D01*
X240000000Y-110000000D02*
X240000000Y-146000000D01*
X241000000Y-51000000D02*
X253000000Y-51000000D01*
X241000000Y-86000000D02*
X241000000Y-51000000D01*
X253000000Y-51000000D02*
X253000000Y-146000000D01*
X253000000Y-146000000D02*
X240000000Y-146000000D01*
M02*
