%TF.GenerationSoftware,KiCad,Pcbnew,10.0.3*%
%TF.CreationDate,2026-06-01T00:12:51+02:00*%
%TF.ProjectId,PCB,5043422e-6b69-4636-9164-5f7063625858,rev?*%
%TF.SameCoordinates,Original*%
%TF.FileFunction,Legend,Top*%
%TF.FilePolarity,Positive*%
%FSLAX46Y46*%
G04 Gerber Fmt 4.6, Leading zero omitted, Abs format (unit mm)*
G04 Created by KiCad (PCBNEW 10.0.3) date 2026-06-01 00:12:51*
%MOMM*%
%LPD*%
G01*
G04 APERTURE LIST*
%ADD10C,0.150000*%
%ADD11C,0.120000*%
G04 APERTURE END LIST*
D10*
X67126666Y-40614819D02*
X67126666Y-41329104D01*
X67126666Y-41329104D02*
X67079047Y-41471961D01*
X67079047Y-41471961D02*
X66983809Y-41567200D01*
X66983809Y-41567200D02*
X66840952Y-41614819D01*
X66840952Y-41614819D02*
X66745714Y-41614819D01*
X68079047Y-40614819D02*
X67602857Y-40614819D01*
X67602857Y-40614819D02*
X67555238Y-41091009D01*
X67555238Y-41091009D02*
X67602857Y-41043390D01*
X67602857Y-41043390D02*
X67698095Y-40995771D01*
X67698095Y-40995771D02*
X67936190Y-40995771D01*
X67936190Y-40995771D02*
X68031428Y-41043390D01*
X68031428Y-41043390D02*
X68079047Y-41091009D01*
X68079047Y-41091009D02*
X68126666Y-41186247D01*
X68126666Y-41186247D02*
X68126666Y-41424342D01*
X68126666Y-41424342D02*
X68079047Y-41519580D01*
X68079047Y-41519580D02*
X68031428Y-41567200D01*
X68031428Y-41567200D02*
X67936190Y-41614819D01*
X67936190Y-41614819D02*
X67698095Y-41614819D01*
X67698095Y-41614819D02*
X67602857Y-41567200D01*
X67602857Y-41567200D02*
X67555238Y-41519580D01*
X66126666Y-153134819D02*
X66126666Y-153849104D01*
X66126666Y-153849104D02*
X66079047Y-153991961D01*
X66079047Y-153991961D02*
X65983809Y-154087200D01*
X65983809Y-154087200D02*
X65840952Y-154134819D01*
X65840952Y-154134819D02*
X65745714Y-154134819D01*
X67031428Y-153134819D02*
X66840952Y-153134819D01*
X66840952Y-153134819D02*
X66745714Y-153182438D01*
X66745714Y-153182438D02*
X66698095Y-153230057D01*
X66698095Y-153230057D02*
X66602857Y-153372914D01*
X66602857Y-153372914D02*
X66555238Y-153563390D01*
X66555238Y-153563390D02*
X66555238Y-153944342D01*
X66555238Y-153944342D02*
X66602857Y-154039580D01*
X66602857Y-154039580D02*
X66650476Y-154087200D01*
X66650476Y-154087200D02*
X66745714Y-154134819D01*
X66745714Y-154134819D02*
X66936190Y-154134819D01*
X66936190Y-154134819D02*
X67031428Y-154087200D01*
X67031428Y-154087200D02*
X67079047Y-154039580D01*
X67079047Y-154039580D02*
X67126666Y-153944342D01*
X67126666Y-153944342D02*
X67126666Y-153706247D01*
X67126666Y-153706247D02*
X67079047Y-153611009D01*
X67079047Y-153611009D02*
X67031428Y-153563390D01*
X67031428Y-153563390D02*
X66936190Y-153515771D01*
X66936190Y-153515771D02*
X66745714Y-153515771D01*
X66745714Y-153515771D02*
X66650476Y-153563390D01*
X66650476Y-153563390D02*
X66602857Y-153611009D01*
X66602857Y-153611009D02*
X66555238Y-153706247D01*
%TO.C,J4*%
D11*
X201870000Y-119170000D02*
X201870000Y-73390000D01*
X201870000Y-121770000D02*
X201870000Y-120440000D01*
X203200000Y-121770000D02*
X201870000Y-121770000D01*
X204530000Y-73390000D02*
X201870000Y-73390000D01*
X204530000Y-119170000D02*
X201870000Y-119170000D01*
X204530000Y-119170000D02*
X204530000Y-73390000D01*
%TO.C,J7*%
X246620000Y-53540000D02*
X248000000Y-53540000D01*
X246620000Y-54920000D02*
X246620000Y-53540000D01*
X246620000Y-56190000D02*
X246620000Y-61380000D01*
X246620000Y-56190000D02*
X249380000Y-56190000D01*
X246620000Y-61380000D02*
X249380000Y-61380000D01*
X249380000Y-56190000D02*
X249380000Y-61380000D01*
%TO.C,J2*%
X139697500Y-91137500D02*
X141077500Y-91137500D01*
X139697500Y-92517500D02*
X139697500Y-91137500D01*
X139697500Y-93787500D02*
X139697500Y-101517500D01*
X139697500Y-93787500D02*
X142457500Y-93787500D01*
X139697500Y-101517500D02*
X142457500Y-101517500D01*
X142457500Y-93787500D02*
X142457500Y-101517500D01*
%TO.C,J5*%
X62260000Y-30120000D02*
X69700000Y-30120000D01*
X62260000Y-40160000D02*
X62260000Y-30120000D01*
X70300000Y-30120000D02*
X72660000Y-30120000D01*
X72660000Y-30120000D02*
X72660000Y-40160000D01*
X72660000Y-30740000D02*
X62260000Y-30740000D01*
X72660000Y-32240000D02*
X62260000Y-32240000D01*
X72660000Y-37140000D02*
X62260000Y-37140000D01*
X72660000Y-40160000D02*
X62260000Y-40160000D01*
X70000000Y-30120000D02*
X69560000Y-29510000D01*
X70440000Y-29510000D01*
X70000000Y-30120000D01*
G36*
X70000000Y-30120000D02*
G01*
X69560000Y-29510000D01*
X70440000Y-29510000D01*
X70000000Y-30120000D01*
G37*
%TO.C,J11*%
X246620000Y-93540000D02*
X248000000Y-93540000D01*
X246620000Y-94920000D02*
X246620000Y-93540000D01*
X246620000Y-96190000D02*
X246620000Y-101380000D01*
X246620000Y-96190000D02*
X249380000Y-96190000D01*
X246620000Y-101380000D02*
X249380000Y-101380000D01*
X249380000Y-96190000D02*
X249380000Y-101380000D01*
%TO.C,J10*%
X63670000Y-93190000D02*
X63670000Y-105950000D01*
X63670000Y-93190000D02*
X66330000Y-93190000D01*
X63670000Y-105950000D02*
X66330000Y-105950000D01*
X65000000Y-90590000D02*
X66330000Y-90590000D01*
X66330000Y-90590000D02*
X66330000Y-91920000D01*
X66330000Y-93190000D02*
X66330000Y-105950000D01*
%TO.C,J3*%
X176470000Y-75870000D02*
X176470000Y-121650000D01*
X176470000Y-75870000D02*
X179130000Y-75870000D01*
X176470000Y-121650000D02*
X179130000Y-121650000D01*
X177800000Y-73270000D02*
X179130000Y-73270000D01*
X179130000Y-73270000D02*
X179130000Y-74600000D01*
X179130000Y-75870000D02*
X179130000Y-121650000D01*
%TO.C,J8*%
X246620000Y-73540000D02*
X248000000Y-73540000D01*
X246620000Y-74920000D02*
X246620000Y-73540000D01*
X246620000Y-76190000D02*
X246620000Y-81380000D01*
X246620000Y-76190000D02*
X249380000Y-76190000D01*
X246620000Y-81380000D02*
X249380000Y-81380000D01*
X249380000Y-76190000D02*
X249380000Y-81380000D01*
%TO.C,J6*%
X61260000Y-154680000D02*
X71660000Y-154680000D01*
X61260000Y-157700000D02*
X71660000Y-157700000D01*
X61260000Y-162600000D02*
X71660000Y-162600000D01*
X61260000Y-164100000D02*
X71660000Y-164100000D01*
X61260000Y-164720000D02*
X61260000Y-154680000D01*
X63620000Y-164720000D02*
X61260000Y-164720000D01*
X71660000Y-154680000D02*
X71660000Y-164720000D01*
X71660000Y-164720000D02*
X64220000Y-164720000D01*
X63920000Y-164720000D02*
X64360000Y-165330000D01*
X63480000Y-165330000D01*
X63920000Y-164720000D01*
G36*
X64360000Y-165330000D02*
G01*
X63480000Y-165330000D01*
X63920000Y-164720000D01*
X64360000Y-165330000D01*
G37*
%TO.C,J13*%
X246620000Y-133540000D02*
X248000000Y-133540000D01*
X246620000Y-134920000D02*
X246620000Y-133540000D01*
X246620000Y-136190000D02*
X246620000Y-141380000D01*
X246620000Y-136190000D02*
X249380000Y-136190000D01*
X246620000Y-141380000D02*
X249380000Y-141380000D01*
X249380000Y-136190000D02*
X249380000Y-141380000D01*
%TO.C,J9*%
X78670000Y-103350000D02*
X78670000Y-90590000D01*
X78670000Y-105950000D02*
X78670000Y-104620000D01*
X80000000Y-105950000D02*
X78670000Y-105950000D01*
X81330000Y-90590000D02*
X78670000Y-90590000D01*
X81330000Y-103350000D02*
X78670000Y-103350000D01*
X81330000Y-103350000D02*
X81330000Y-90590000D01*
%TO.C,J1*%
X128780000Y-91090000D02*
X138820000Y-91090000D01*
X128780000Y-93450000D02*
X128780000Y-91090000D01*
X128780000Y-101490000D02*
X128780000Y-94050000D01*
X129400000Y-91090000D02*
X129400000Y-101490000D01*
X130900000Y-91090000D02*
X130900000Y-101490000D01*
X135800000Y-91090000D02*
X135800000Y-101490000D01*
X138820000Y-91090000D02*
X138820000Y-101490000D01*
X138820000Y-101490000D02*
X128780000Y-101490000D01*
X128780000Y-93750000D02*
X128170000Y-94190000D01*
X128170000Y-93310000D01*
X128780000Y-93750000D01*
G36*
X128780000Y-93750000D02*
G01*
X128170000Y-94190000D01*
X128170000Y-93310000D01*
X128780000Y-93750000D01*
G37*
%TO.C,J12*%
X246620000Y-113540000D02*
X248000000Y-113540000D01*
X246620000Y-114920000D02*
X246620000Y-113540000D01*
X246620000Y-116190000D02*
X246620000Y-121380000D01*
X246620000Y-116190000D02*
X249380000Y-116190000D01*
X246620000Y-121380000D02*
X249380000Y-121380000D01*
X249380000Y-116190000D02*
X249380000Y-121380000D01*
%TD*%
M02*
