M48
; DRILL file KiCad 10.0.3 date 2026-06-01T00:13:09
; FORMAT={-:-/ absolute / metric / decimal}
; #@! TF.CreationDate,2026-06-01T00:13:09+02:00
; #@! TF.GenerationSoftware,Kicad,Pcbnew,10.0.3
; #@! TF.FileFunction,Plated,1,2,PTH
FMAT,2
METRIC
; #@! TA.AperFunction,Plated,PTH,ViaDrill
T1C0.300
; #@! TA.AperFunction,Plated,PTH,ComponentDrill
T2C1.000
; #@! TA.AperFunction,Plated,PTH,ComponentDrill
T3C1.300
%
G90
G05
T1
X84.0Y-92.0
X143.0Y-103.0
X143.0Y-105.0
X154.0Y-103.0
X154.0Y-105.0
X189.0Y-98.0
X207.0Y-98.0
T2
X65.0Y-91.92
X65.0Y-94.46
X65.0Y-97.0
X65.0Y-99.54
X65.0Y-102.08
X65.0Y-104.62
X80.0Y-91.92
X80.0Y-94.46
X80.0Y-97.0
X80.0Y-99.54
X80.0Y-102.08
X80.0Y-104.62
X141.077Y-92.517
X141.077Y-95.057
X141.077Y-97.597
X141.077Y-100.137
X177.8Y-74.6
X177.8Y-77.14
X177.8Y-79.68
X177.8Y-82.22
X177.8Y-84.76
X177.8Y-87.3
X177.8Y-89.84
X177.8Y-92.38
X177.8Y-94.92
X177.8Y-97.46
X177.8Y-100.0
X177.8Y-102.54
X177.8Y-105.08
X177.8Y-107.62
X177.8Y-110.16
X177.8Y-112.7
X177.8Y-115.24
X177.8Y-117.78
X177.8Y-120.32
X203.2Y-74.72
X203.2Y-77.26
X203.2Y-79.8
X203.2Y-82.34
X203.2Y-84.88
X203.2Y-87.42
X203.2Y-89.96
X203.2Y-92.5
X203.2Y-95.04
X203.2Y-97.58
X203.2Y-100.12
X203.2Y-102.66
X203.2Y-105.2
X203.2Y-107.74
X203.2Y-110.28
X203.2Y-112.82
X203.2Y-115.36
X203.2Y-117.9
X203.2Y-120.44
X248.0Y-54.92
X248.0Y-57.46
X248.0Y-60.0
X248.0Y-74.92
X248.0Y-77.46
X248.0Y-80.0
X248.0Y-94.92
X248.0Y-97.46
X248.0Y-100.0
X248.0Y-114.92
X248.0Y-117.46
X248.0Y-120.0
X248.0Y-134.92
X248.0Y-137.46
X248.0Y-140.0
T3
X63.92Y-160.0
X64.92Y-34.84
X69.0Y-160.0
X70.0Y-34.84
X133.5Y-93.75
X133.5Y-98.83
M30
