%TF.GenerationSoftware,KiCad,Pcbnew,10.0.3*%
%TF.CreationDate,2026-06-01T00:12:51+02:00*%
%TF.ProjectId,PCB,5043422e-6b69-4636-9164-5f7063625858,rev?*%
%TF.SameCoordinates,Original*%
%TF.FileFunction,Copper,L2,Bot*%
%TF.FilePolarity,Positive*%
%FSLAX46Y46*%
G04 Gerber Fmt 4.6, Leading zero omitted, Abs format (unit mm)*
G04 Created by KiCad (PCBNEW 10.0.3) date 2026-06-01 00:12:51*
%MOMM*%
%LPD*%
G01*
G04 APERTURE LIST*
G04 Aperture macros list*
%AMRoundRect*
0 Rectangle with rounded corners*
0 $1 Rounding radius*
0 $2 $3 $4 $5 $6 $7 $8 $9 X,Y pos of 4 corners*
0 Add a 4 corners polygon primitive as box body*
4,1,4,$2,$3,$4,$5,$6,$7,$8,$9,$2,$3,0*
0 Add four circle primitives for the rounded corners*
1,1,$1+$1,$2,$3*
1,1,$1+$1,$4,$5*
1,1,$1+$1,$6,$7*
1,1,$1+$1,$8,$9*
0 Add four rect primitives between the rounded corners*
20,1,$1+$1,$2,$3,$4,$5,0*
20,1,$1+$1,$4,$5,$6,$7,0*
20,1,$1+$1,$6,$7,$8,$9,0*
20,1,$1+$1,$8,$9,$2,$3,0*%
G04 Aperture macros list end*
%TA.AperFunction,ComponentPad*%
%ADD10R,1.700000X1.700000*%
%TD*%
%TA.AperFunction,ComponentPad*%
%ADD11C,1.700000*%
%TD*%
%TA.AperFunction,ComponentPad*%
%ADD12RoundRect,0.250000X1.050000X1.050000X-1.050000X1.050000X-1.050000X-1.050000X1.050000X-1.050000X0*%
%TD*%
%TA.AperFunction,ComponentPad*%
%ADD13C,2.600000*%
%TD*%
%TA.AperFunction,ComponentPad*%
%ADD14RoundRect,0.250000X-1.050000X-1.050000X1.050000X-1.050000X1.050000X1.050000X-1.050000X1.050000X0*%
%TD*%
%TA.AperFunction,ComponentPad*%
%ADD15RoundRect,0.250000X-1.050000X1.050000X-1.050000X-1.050000X1.050000X-1.050000X1.050000X1.050000X0*%
%TD*%
%TA.AperFunction,ViaPad*%
%ADD16C,0.600000*%
%TD*%
%TA.AperFunction,Conductor*%
%ADD17C,0.250000*%
%TD*%
%TA.AperFunction,Conductor*%
%ADD18C,1.000000*%
%TD*%
G04 APERTURE END LIST*
D10*
%TO.P,J4,1,Pin_1_1*%
%TO.N,unconnected-(J4-Pin_1-Pad1)*%
X203200000Y-120440000D03*
D11*
%TO.P,J4,2,Pin_2_2*%
%TO.N,unconnected-(J4-Pin_2-Pad2)*%
X203200000Y-117900000D03*
%TO.P,J4,3,Pin_3_3*%
%TO.N,/SENS_RR*%
X203200000Y-115360000D03*
%TO.P,J4,4,Pin_4_4*%
%TO.N,/SENS_R*%
X203200000Y-112820000D03*
%TO.P,J4,5,Pin_5_5*%
%TO.N,/SENS_C*%
X203200000Y-110280000D03*
%TO.P,J4,6,Pin_6_6*%
%TO.N,/SENS_L*%
X203200000Y-107740000D03*
%TO.P,J4,7,Pin_7_7*%
%TO.N,/SENS_LL*%
X203200000Y-105200000D03*
%TO.P,J4,8,Pin_8_8*%
%TO.N,unconnected-(J4-Pin_8-Pad8)*%
X203200000Y-102660000D03*
%TO.P,J4,9,Pin_9_9*%
%TO.N,unconnected-(J4-Pin_9-Pad9)*%
X203200000Y-100120000D03*
%TO.P,J4,10,Pin_10_10*%
%TO.N,unconnected-(J4-Pin_10-Pad10)*%
X203200000Y-97580000D03*
%TO.P,J4,11,Pin_11_11*%
%TO.N,unconnected-(J4-Pin_11-Pad11)*%
X203200000Y-95040000D03*
%TO.P,J4,12,Pin_12_12*%
%TO.N,unconnected-(J4-Pin_12-Pad12)*%
X203200000Y-92500000D03*
%TO.P,J4,13,Pin_13_13*%
%TO.N,unconnected-(J4-Pin_13-Pad13)*%
X203200000Y-89960000D03*
%TO.P,J4,14,Pin_14_14*%
%TO.N,GND*%
X203200000Y-87420000D03*
%TO.P,J4,15,Pin_15_15*%
%TO.N,unconnected-(J4-Pin_15-Pad15)*%
X203200000Y-84880000D03*
%TO.P,J4,16,Pin_16_16*%
%TO.N,unconnected-(J4-Pin_16-Pad16)*%
X203200000Y-82340000D03*
%TO.P,J4,17,Pin_17_17*%
%TO.N,unconnected-(J4-Pin_17-Pad17)*%
X203200000Y-79800000D03*
%TO.P,J4,18,Pin_18_18*%
%TO.N,unconnected-(J4-Pin_18-Pad18)*%
X203200000Y-77260000D03*
%TO.P,J4,19,Pin_19_19*%
%TO.N,+5V*%
X203200000Y-74720000D03*
%TD*%
D10*
%TO.P,J7,1,Pin_1_1*%
%TO.N,GND*%
X248000000Y-54920000D03*
D11*
%TO.P,J7,2,Pin_2_2*%
%TO.N,/VESP*%
X248000000Y-57460000D03*
%TO.P,J7,3,Pin_3_3*%
%TO.N,/SENS_LL*%
X248000000Y-60000000D03*
%TD*%
D10*
%TO.P,J2,1,Pin_1_1*%
%TO.N,/VBAT*%
X141077500Y-92517500D03*
D11*
%TO.P,J2,2,Pin_2_2*%
%TO.N,GND*%
X141077500Y-95057500D03*
%TO.P,J2,3,Pin_3_3*%
%TO.N,+5V*%
X141077500Y-97597500D03*
%TO.P,J2,4,Pin_4_4*%
%TO.N,GND*%
X141077500Y-100137500D03*
%TD*%
D12*
%TO.P,J5,1,Pin_1_1*%
%TO.N,/MOT_A_1*%
X70000000Y-34840000D03*
D13*
%TO.P,J5,2,Pin_2_2*%
%TO.N,/MOT_A_2*%
X64920000Y-34840000D03*
%TD*%
D10*
%TO.P,J11,1,Pin_1_1*%
%TO.N,GND*%
X248000000Y-94920000D03*
D11*
%TO.P,J11,2,Pin_2_2*%
%TO.N,/VESP*%
X248000000Y-97460000D03*
%TO.P,J11,3,Pin_3_3*%
%TO.N,/SENS_C*%
X248000000Y-100000000D03*
%TD*%
D10*
%TO.P,J10,1,Pin_1_1*%
%TO.N,+5V*%
X65000000Y-91920000D03*
D11*
%TO.P,J10,2,Pin_2_2*%
%TO.N,/MOT_B_1*%
X65000000Y-94460000D03*
%TO.P,J10,3,Pin_3_3*%
%TO.N,/MOT_B_2*%
X65000000Y-97000000D03*
%TO.P,J10,4,Pin_4_4*%
%TO.N,/MOT_A_1*%
X65000000Y-99540000D03*
%TO.P,J10,5,Pin_5_5*%
%TO.N,/MOT_A_2*%
X65000000Y-102080000D03*
%TO.P,J10,6,Pin_6_6*%
%TO.N,unconnected-(J10-Pin_6-Pad6)*%
X65000000Y-104620000D03*
%TD*%
D10*
%TO.P,J3,1,Pin_1_1*%
%TO.N,/VESP*%
X177800000Y-74600000D03*
D11*
%TO.P,J3,2,Pin_2_2*%
%TO.N,unconnected-(J3-Pin_2-Pad2)*%
X177800000Y-77140000D03*
%TO.P,J3,3,Pin_3_3*%
%TO.N,unconnected-(J3-Pin_3-Pad3)*%
X177800000Y-79680000D03*
%TO.P,J3,4,Pin_4_4*%
%TO.N,unconnected-(J3-Pin_4-Pad4)*%
X177800000Y-82220000D03*
%TO.P,J3,5,Pin_5_5*%
%TO.N,unconnected-(J3-Pin_5-Pad5)*%
X177800000Y-84760000D03*
%TO.P,J3,6,Pin_6_6*%
%TO.N,unconnected-(J3-Pin_6-Pad6)*%
X177800000Y-87300000D03*
%TO.P,J3,7,Pin_7_7*%
%TO.N,unconnected-(J3-Pin_7-Pad7)*%
X177800000Y-89840000D03*
%TO.P,J3,8,Pin_8_8*%
%TO.N,/PWM_A1*%
X177800000Y-92380000D03*
%TO.P,J3,9,Pin_9_9*%
%TO.N,/PWM_A2*%
X177800000Y-94920000D03*
%TO.P,J3,10,Pin_10_10*%
%TO.N,unconnected-(J3-Pin_10-Pad10)*%
X177800000Y-97460000D03*
%TO.P,J3,11,Pin_11_11*%
%TO.N,/PWM_B1*%
X177800000Y-100000000D03*
%TO.P,J3,12,Pin_12_12*%
%TO.N,/PWM_B2*%
X177800000Y-102540000D03*
%TO.P,J3,13,Pin_13_13*%
%TO.N,unconnected-(J3-Pin_13-Pad13)*%
X177800000Y-105080000D03*
%TO.P,J3,14,Pin_14_14*%
%TO.N,unconnected-(J3-Pin_14-Pad14)*%
X177800000Y-107620000D03*
%TO.P,J3,15,Pin_15_15*%
%TO.N,unconnected-(J3-Pin_15-Pad15)*%
X177800000Y-110160000D03*
%TO.P,J3,16,Pin_16_16*%
%TO.N,unconnected-(J3-Pin_16-Pad16)*%
X177800000Y-112700000D03*
%TO.P,J3,17,Pin_17_17*%
%TO.N,unconnected-(J3-Pin_17-Pad17)*%
X177800000Y-115240000D03*
%TO.P,J3,18,Pin_18_18*%
%TO.N,unconnected-(J3-Pin_18-Pad18)*%
X177800000Y-117780000D03*
%TO.P,J3,19,Pin_19_19*%
%TO.N,GND*%
X177800000Y-120320000D03*
%TD*%
D10*
%TO.P,J8,1,Pin_1_1*%
%TO.N,GND*%
X248000000Y-74920000D03*
D11*
%TO.P,J8,2,Pin_2_2*%
%TO.N,/VESP*%
X248000000Y-77460000D03*
%TO.P,J8,3,Pin_3_3*%
%TO.N,/SENS_L*%
X248000000Y-80000000D03*
%TD*%
D14*
%TO.P,J6,1,Pin_1_1*%
%TO.N,/MOT_B_1*%
X63920000Y-160000000D03*
D13*
%TO.P,J6,2,Pin_2_2*%
%TO.N,/MOT_B_2*%
X69000000Y-160000000D03*
%TD*%
D10*
%TO.P,J13,1,Pin_1_1*%
%TO.N,GND*%
X248000000Y-134920000D03*
D11*
%TO.P,J13,2,Pin_2_2*%
%TO.N,/VESP*%
X248000000Y-137460000D03*
%TO.P,J13,3,Pin_3_3*%
%TO.N,/SENS_RR*%
X248000000Y-140000000D03*
%TD*%
D10*
%TO.P,J9,1,Pin_1_1*%
%TO.N,/PWM_B1*%
X80000000Y-104620000D03*
D11*
%TO.P,J9,2,Pin_2_2*%
%TO.N,/PWM_B2*%
X80000000Y-102080000D03*
%TO.P,J9,3,Pin_3_3*%
%TO.N,/VBAT*%
X80000000Y-99540000D03*
%TO.P,J9,4,Pin_4_4*%
%TO.N,GND*%
X80000000Y-97000000D03*
%TO.P,J9,5,Pin_5_5*%
%TO.N,/PWM_A1*%
X80000000Y-94460000D03*
%TO.P,J9,6,Pin_6_6*%
%TO.N,/PWM_A2*%
X80000000Y-91920000D03*
%TD*%
D15*
%TO.P,J1,1,Pin_1_1*%
%TO.N,/VBAT*%
X133500000Y-93750000D03*
D13*
%TO.P,J1,2,Pin_2_2*%
%TO.N,GND*%
X133500000Y-98830000D03*
%TD*%
D10*
%TO.P,J12,1,Pin_1_1*%
%TO.N,GND*%
X248000000Y-114920000D03*
D11*
%TO.P,J12,2,Pin_2_2*%
%TO.N,/VESP*%
X248000000Y-117460000D03*
%TO.P,J12,3,Pin_3_3*%
%TO.N,/SENS_R*%
X248000000Y-120000000D03*
%TD*%
D16*
%TO.N,/VESP*%
X189000000Y-98000000D03*
X207000000Y-98000000D03*
%TO.N,/PWM_A2*%
X84000000Y-92000000D03*
%TO.N,/PWM_B1*%
X143000000Y-105000000D03*
X154000000Y-105000000D03*
%TO.N,/PWM_B2*%
X143000000Y-103000000D03*
X154000000Y-103000000D03*
%TD*%
%TO.N,/VESP*%
D17*
X205405000Y-96405000D02*
X207000000Y-98000000D01*
X190595000Y-96405000D02*
X205405000Y-96405000D01*
X189000000Y-98000000D02*
X190595000Y-96405000D01*
%TO.N,/MOT_A_1*%
D18*
X70000000Y-94540000D02*
X70000000Y-34840000D01*
X65000000Y-99540000D02*
X70000000Y-94540000D01*
%TO.N,/MOT_A_2*%
X63450000Y-36310000D02*
X64920000Y-34840000D01*
X65000000Y-102080000D02*
X63450000Y-100530000D01*
X63450000Y-100530000D02*
X63450000Y-36310000D01*
%TO.N,/PWM_A2*%
D17*
X80000000Y-91920000D02*
X83920000Y-91920000D01*
X83920000Y-91920000D02*
X84000000Y-92000000D01*
%TO.N,/PWM_B1*%
X143000000Y-105000000D02*
X154000000Y-105000000D01*
%TO.N,/PWM_B2*%
X154000000Y-103000000D02*
X143000000Y-103000000D01*
%TD*%
%TA.AperFunction,Conductor*%
%TO.N,GND*%
G36*
X73794071Y-28501345D02*
G01*
X74389954Y-28571270D01*
X74454240Y-28598633D01*
X74493529Y-28656409D01*
X74499500Y-28694424D01*
X74499500Y-66065891D01*
X74533608Y-66193187D01*
X74566554Y-66250250D01*
X74599500Y-66307314D01*
X74692686Y-66400500D01*
X74806814Y-66466392D01*
X74934108Y-66500500D01*
X208375500Y-66500500D01*
X208442539Y-66520185D01*
X208488294Y-66572989D01*
X208499500Y-66624500D01*
X208499500Y-86065891D01*
X208533608Y-86193187D01*
X208535952Y-86197246D01*
X208599500Y-86307314D01*
X208692686Y-86400500D01*
X208806814Y-86466392D01*
X208934108Y-86500500D01*
X208934110Y-86500500D01*
X241065890Y-86500500D01*
X241065892Y-86500500D01*
X241193186Y-86466392D01*
X241307314Y-86400500D01*
X241400500Y-86307314D01*
X241466392Y-86193186D01*
X241500500Y-86065892D01*
X241500500Y-77353713D01*
X246649500Y-77353713D01*
X246649500Y-77566287D01*
X246682754Y-77776243D01*
X246745001Y-77967820D01*
X246748444Y-77978414D01*
X246844951Y-78167820D01*
X246969890Y-78339786D01*
X247120213Y-78490109D01*
X247292182Y-78615050D01*
X247300946Y-78619516D01*
X247351742Y-78667491D01*
X247368536Y-78735312D01*
X247345998Y-78801447D01*
X247300946Y-78840484D01*
X247292182Y-78844949D01*
X247120213Y-78969890D01*
X246969890Y-79120213D01*
X246844951Y-79292179D01*
X246748444Y-79481585D01*
X246682753Y-79683760D01*
X246664060Y-79801787D01*
X246649500Y-79893713D01*
X246649500Y-80106287D01*
X246682754Y-80316243D01*
X246745001Y-80507820D01*
X246748444Y-80518414D01*
X246844951Y-80707820D01*
X246969890Y-80879786D01*
X247120213Y-81030109D01*
X247292179Y-81155048D01*
X247292181Y-81155049D01*
X247292184Y-81155051D01*
X247481588Y-81251557D01*
X247683757Y-81317246D01*
X247893713Y-81350500D01*
X247893714Y-81350500D01*
X248106286Y-81350500D01*
X248106287Y-81350500D01*
X248316243Y-81317246D01*
X248518412Y-81251557D01*
X248707816Y-81155051D01*
X248729789Y-81139086D01*
X248879786Y-81030109D01*
X248879788Y-81030106D01*
X248879792Y-81030104D01*
X249030104Y-80879792D01*
X249030106Y-80879788D01*
X249030109Y-80879786D01*
X249155048Y-80707820D01*
X249155047Y-80707820D01*
X249155051Y-80707816D01*
X249251557Y-80518412D01*
X249317246Y-80316243D01*
X249350500Y-80106287D01*
X249350500Y-79893713D01*
X249317246Y-79683757D01*
X249251557Y-79481588D01*
X249155051Y-79292184D01*
X249155049Y-79292181D01*
X249155048Y-79292179D01*
X249030109Y-79120213D01*
X248879786Y-78969890D01*
X248707820Y-78844951D01*
X248707115Y-78844591D01*
X248699054Y-78840485D01*
X248648259Y-78792512D01*
X248631463Y-78724692D01*
X248653999Y-78658556D01*
X248699054Y-78619515D01*
X248707816Y-78615051D01*
X248729789Y-78599086D01*
X248879786Y-78490109D01*
X248879788Y-78490106D01*
X248879792Y-78490104D01*
X249030104Y-78339792D01*
X249030106Y-78339788D01*
X249030109Y-78339786D01*
X249155048Y-78167820D01*
X249155047Y-78167820D01*
X249155051Y-78167816D01*
X249251557Y-77978412D01*
X249317246Y-77776243D01*
X249350500Y-77566287D01*
X249350500Y-77353713D01*
X249317246Y-77143757D01*
X249251557Y-76941588D01*
X249155051Y-76752184D01*
X249155049Y-76752181D01*
X249155048Y-76752179D01*
X249030109Y-76580213D01*
X248916181Y-76466285D01*
X248882696Y-76404962D01*
X248887680Y-76335270D01*
X248929552Y-76279337D01*
X248960529Y-76262422D01*
X249092086Y-76213354D01*
X249092093Y-76213350D01*
X249207187Y-76127190D01*
X249207190Y-76127187D01*
X249293350Y-76012093D01*
X249293354Y-76012086D01*
X249343596Y-75877379D01*
X249343598Y-75877372D01*
X249349999Y-75817844D01*
X249350000Y-75817827D01*
X249350000Y-75170000D01*
X248433012Y-75170000D01*
X248465925Y-75112993D01*
X248500000Y-74985826D01*
X248500000Y-74854174D01*
X248465925Y-74727007D01*
X248433012Y-74670000D01*
X249350000Y-74670000D01*
X249350000Y-74022172D01*
X249349999Y-74022155D01*
X249343598Y-73962627D01*
X249343596Y-73962620D01*
X249293354Y-73827913D01*
X249293350Y-73827906D01*
X249207190Y-73712812D01*
X249207187Y-73712809D01*
X249092093Y-73626649D01*
X249092086Y-73626645D01*
X248957379Y-73576403D01*
X248957372Y-73576401D01*
X248897844Y-73570000D01*
X248250000Y-73570000D01*
X248250000Y-74486988D01*
X248192993Y-74454075D01*
X248065826Y-74420000D01*
X247934174Y-74420000D01*
X247807007Y-74454075D01*
X247750000Y-74486988D01*
X247750000Y-73570000D01*
X247102155Y-73570000D01*
X247042627Y-73576401D01*
X247042620Y-73576403D01*
X246907913Y-73626645D01*
X246907906Y-73626649D01*
X246792812Y-73712809D01*
X246792809Y-73712812D01*
X246706649Y-73827906D01*
X246706645Y-73827913D01*
X246656403Y-73962620D01*
X246656401Y-73962627D01*
X246650000Y-74022155D01*
X246650000Y-74670000D01*
X247566988Y-74670000D01*
X247534075Y-74727007D01*
X247500000Y-74854174D01*
X247500000Y-74985826D01*
X247534075Y-75112993D01*
X247566988Y-75170000D01*
X246650000Y-75170000D01*
X246650000Y-75817844D01*
X246656401Y-75877372D01*
X246656403Y-75877379D01*
X246706645Y-76012086D01*
X246706649Y-76012093D01*
X246792809Y-76127187D01*
X246792812Y-76127190D01*
X246907906Y-76213350D01*
X246907913Y-76213354D01*
X247039470Y-76262422D01*
X247095404Y-76304293D01*
X247119821Y-76369758D01*
X247104969Y-76438031D01*
X247083819Y-76466285D01*
X246969889Y-76580215D01*
X246844951Y-76752179D01*
X246748444Y-76941585D01*
X246682753Y-77143760D01*
X246656732Y-77308050D01*
X246649500Y-77353713D01*
X241500500Y-77353713D01*
X241500500Y-57353713D01*
X246649500Y-57353713D01*
X246649500Y-57566286D01*
X246682753Y-57776239D01*
X246748444Y-57978414D01*
X246844951Y-58167820D01*
X246969890Y-58339786D01*
X247120213Y-58490109D01*
X247292182Y-58615050D01*
X247300946Y-58619516D01*
X247351742Y-58667491D01*
X247368536Y-58735312D01*
X247345998Y-58801447D01*
X247300946Y-58840484D01*
X247292182Y-58844949D01*
X247120213Y-58969890D01*
X246969890Y-59120213D01*
X246844951Y-59292179D01*
X246748444Y-59481585D01*
X246682753Y-59683760D01*
X246649500Y-59893713D01*
X246649500Y-60106286D01*
X246682753Y-60316239D01*
X246748444Y-60518414D01*
X246844951Y-60707820D01*
X246969890Y-60879786D01*
X247120213Y-61030109D01*
X247292179Y-61155048D01*
X247292181Y-61155049D01*
X247292184Y-61155051D01*
X247481588Y-61251557D01*
X247683757Y-61317246D01*
X247893713Y-61350500D01*
X247893714Y-61350500D01*
X248106286Y-61350500D01*
X248106287Y-61350500D01*
X248316243Y-61317246D01*
X248518412Y-61251557D01*
X248707816Y-61155051D01*
X248729789Y-61139086D01*
X248879786Y-61030109D01*
X248879788Y-61030106D01*
X248879792Y-61030104D01*
X249030104Y-60879792D01*
X249030106Y-60879788D01*
X249030109Y-60879786D01*
X249155048Y-60707820D01*
X249155047Y-60707820D01*
X249155051Y-60707816D01*
X249251557Y-60518412D01*
X249317246Y-60316243D01*
X249350500Y-60106287D01*
X249350500Y-59893713D01*
X249317246Y-59683757D01*
X249251557Y-59481588D01*
X249155051Y-59292184D01*
X249155049Y-59292181D01*
X249155048Y-59292179D01*
X249030109Y-59120213D01*
X248879786Y-58969890D01*
X248707820Y-58844951D01*
X248707115Y-58844591D01*
X248699054Y-58840485D01*
X248648259Y-58792512D01*
X248631463Y-58724692D01*
X248653999Y-58658556D01*
X248699054Y-58619515D01*
X248707816Y-58615051D01*
X248729789Y-58599086D01*
X248879786Y-58490109D01*
X248879788Y-58490106D01*
X248879792Y-58490104D01*
X249030104Y-58339792D01*
X249030106Y-58339788D01*
X249030109Y-58339786D01*
X249155048Y-58167820D01*
X249155047Y-58167820D01*
X249155051Y-58167816D01*
X249251557Y-57978412D01*
X249317246Y-57776243D01*
X249350500Y-57566287D01*
X249350500Y-57353713D01*
X249317246Y-57143757D01*
X249251557Y-56941588D01*
X249155051Y-56752184D01*
X249155049Y-56752181D01*
X249155048Y-56752179D01*
X249030109Y-56580213D01*
X248916181Y-56466285D01*
X248882696Y-56404962D01*
X248887680Y-56335270D01*
X248929552Y-56279337D01*
X248960529Y-56262422D01*
X249092086Y-56213354D01*
X249092093Y-56213350D01*
X249207187Y-56127190D01*
X249207190Y-56127187D01*
X249293350Y-56012093D01*
X249293354Y-56012086D01*
X249343596Y-55877379D01*
X249343598Y-55877372D01*
X249349999Y-55817844D01*
X249350000Y-55817827D01*
X249350000Y-55170000D01*
X248433012Y-55170000D01*
X248465925Y-55112993D01*
X248500000Y-54985826D01*
X248500000Y-54854174D01*
X248465925Y-54727007D01*
X248433012Y-54670000D01*
X249350000Y-54670000D01*
X249350000Y-54022172D01*
X249349999Y-54022155D01*
X249343598Y-53962627D01*
X249343596Y-53962620D01*
X249293354Y-53827913D01*
X249293350Y-53827906D01*
X249207190Y-53712812D01*
X249207187Y-53712809D01*
X249092093Y-53626649D01*
X249092086Y-53626645D01*
X248957379Y-53576403D01*
X248957372Y-53576401D01*
X248897844Y-53570000D01*
X248250000Y-53570000D01*
X248250000Y-54486988D01*
X248192993Y-54454075D01*
X248065826Y-54420000D01*
X247934174Y-54420000D01*
X247807007Y-54454075D01*
X247750000Y-54486988D01*
X247750000Y-53570000D01*
X247102155Y-53570000D01*
X247042627Y-53576401D01*
X247042620Y-53576403D01*
X246907913Y-53626645D01*
X246907906Y-53626649D01*
X246792812Y-53712809D01*
X246792809Y-53712812D01*
X246706649Y-53827906D01*
X246706645Y-53827913D01*
X246656403Y-53962620D01*
X246656401Y-53962627D01*
X246650000Y-54022155D01*
X246650000Y-54670000D01*
X247566988Y-54670000D01*
X247534075Y-54727007D01*
X247500000Y-54854174D01*
X247500000Y-54985826D01*
X247534075Y-55112993D01*
X247566988Y-55170000D01*
X246650000Y-55170000D01*
X246650000Y-55817844D01*
X246656401Y-55877372D01*
X246656403Y-55877379D01*
X246706645Y-56012086D01*
X246706649Y-56012093D01*
X246792809Y-56127187D01*
X246792812Y-56127190D01*
X246907906Y-56213350D01*
X246907913Y-56213354D01*
X247039470Y-56262422D01*
X247095404Y-56304293D01*
X247119821Y-56369758D01*
X247104969Y-56438031D01*
X247083819Y-56466285D01*
X246969889Y-56580215D01*
X246844951Y-56752179D01*
X246748444Y-56941585D01*
X246682753Y-57143760D01*
X246649500Y-57353713D01*
X241500500Y-57353713D01*
X241500500Y-51624500D01*
X241520185Y-51557461D01*
X241572989Y-51511706D01*
X241624500Y-51500500D01*
X252375500Y-51500500D01*
X252442539Y-51520185D01*
X252488294Y-51572989D01*
X252499500Y-51624500D01*
X252499500Y-145375500D01*
X252479815Y-145442539D01*
X252427011Y-145488294D01*
X252375500Y-145499500D01*
X240624500Y-145499500D01*
X240557461Y-145479815D01*
X240511706Y-145427011D01*
X240500500Y-145375500D01*
X240500500Y-137353713D01*
X246649500Y-137353713D01*
X246649500Y-137566286D01*
X246682753Y-137776239D01*
X246748444Y-137978414D01*
X246844951Y-138167820D01*
X246969890Y-138339786D01*
X247120213Y-138490109D01*
X247292182Y-138615050D01*
X247300946Y-138619516D01*
X247351742Y-138667491D01*
X247368536Y-138735312D01*
X247345998Y-138801447D01*
X247300946Y-138840484D01*
X247292182Y-138844949D01*
X247120213Y-138969890D01*
X246969890Y-139120213D01*
X246844951Y-139292179D01*
X246748444Y-139481585D01*
X246682753Y-139683760D01*
X246649500Y-139893713D01*
X246649500Y-140106286D01*
X246682753Y-140316239D01*
X246748444Y-140518414D01*
X246844951Y-140707820D01*
X246969890Y-140879786D01*
X247120213Y-141030109D01*
X247292179Y-141155048D01*
X247292181Y-141155049D01*
X247292184Y-141155051D01*
X247481588Y-141251557D01*
X247683757Y-141317246D01*
X247893713Y-141350500D01*
X247893714Y-141350500D01*
X248106286Y-141350500D01*
X248106287Y-141350500D01*
X248316243Y-141317246D01*
X248518412Y-141251557D01*
X248707816Y-141155051D01*
X248729789Y-141139086D01*
X248879786Y-141030109D01*
X248879788Y-141030106D01*
X248879792Y-141030104D01*
X249030104Y-140879792D01*
X249030106Y-140879788D01*
X249030109Y-140879786D01*
X249155048Y-140707820D01*
X249155047Y-140707820D01*
X249155051Y-140707816D01*
X249251557Y-140518412D01*
X249317246Y-140316243D01*
X249350500Y-140106287D01*
X249350500Y-139893713D01*
X249317246Y-139683757D01*
X249251557Y-139481588D01*
X249155051Y-139292184D01*
X249155049Y-139292181D01*
X249155048Y-139292179D01*
X249030109Y-139120213D01*
X248879786Y-138969890D01*
X248707820Y-138844951D01*
X248707115Y-138844591D01*
X248699054Y-138840485D01*
X248648259Y-138792512D01*
X248631463Y-138724692D01*
X248653999Y-138658556D01*
X248699054Y-138619515D01*
X248707816Y-138615051D01*
X248729789Y-138599086D01*
X248879786Y-138490109D01*
X248879788Y-138490106D01*
X248879792Y-138490104D01*
X249030104Y-138339792D01*
X249030106Y-138339788D01*
X249030109Y-138339786D01*
X249155048Y-138167820D01*
X249155047Y-138167820D01*
X249155051Y-138167816D01*
X249251557Y-137978412D01*
X249317246Y-137776243D01*
X249350500Y-137566287D01*
X249350500Y-137353713D01*
X249317246Y-137143757D01*
X249251557Y-136941588D01*
X249155051Y-136752184D01*
X249155049Y-136752181D01*
X249155048Y-136752179D01*
X249030109Y-136580213D01*
X248916181Y-136466285D01*
X248882696Y-136404962D01*
X248887680Y-136335270D01*
X248929552Y-136279337D01*
X248960529Y-136262422D01*
X249092086Y-136213354D01*
X249092093Y-136213350D01*
X249207187Y-136127190D01*
X249207190Y-136127187D01*
X249293350Y-136012093D01*
X249293354Y-136012086D01*
X249343596Y-135877379D01*
X249343598Y-135877372D01*
X249349999Y-135817844D01*
X249350000Y-135817827D01*
X249350000Y-135170000D01*
X248433012Y-135170000D01*
X248465925Y-135112993D01*
X248500000Y-134985826D01*
X248500000Y-134854174D01*
X248465925Y-134727007D01*
X248433012Y-134670000D01*
X249350000Y-134670000D01*
X249350000Y-134022172D01*
X249349999Y-134022155D01*
X249343598Y-133962627D01*
X249343596Y-133962620D01*
X249293354Y-133827913D01*
X249293350Y-133827906D01*
X249207190Y-133712812D01*
X249207187Y-133712809D01*
X249092093Y-133626649D01*
X249092086Y-133626645D01*
X248957379Y-133576403D01*
X248957372Y-133576401D01*
X248897844Y-133570000D01*
X248250000Y-133570000D01*
X248250000Y-134486988D01*
X248192993Y-134454075D01*
X248065826Y-134420000D01*
X247934174Y-134420000D01*
X247807007Y-134454075D01*
X247750000Y-134486988D01*
X247750000Y-133570000D01*
X247102155Y-133570000D01*
X247042627Y-133576401D01*
X247042620Y-133576403D01*
X246907913Y-133626645D01*
X246907906Y-133626649D01*
X246792812Y-133712809D01*
X246792809Y-133712812D01*
X246706649Y-133827906D01*
X246706645Y-133827913D01*
X246656403Y-133962620D01*
X246656401Y-133962627D01*
X246650000Y-134022155D01*
X246650000Y-134670000D01*
X247566988Y-134670000D01*
X247534075Y-134727007D01*
X247500000Y-134854174D01*
X247500000Y-134985826D01*
X247534075Y-135112993D01*
X247566988Y-135170000D01*
X246650000Y-135170000D01*
X246650000Y-135817844D01*
X246656401Y-135877372D01*
X246656403Y-135877379D01*
X246706645Y-136012086D01*
X246706649Y-136012093D01*
X246792809Y-136127187D01*
X246792812Y-136127190D01*
X246907906Y-136213350D01*
X246907913Y-136213354D01*
X247039470Y-136262422D01*
X247095404Y-136304293D01*
X247119821Y-136369758D01*
X247104969Y-136438031D01*
X247083819Y-136466285D01*
X246969889Y-136580215D01*
X246844951Y-136752179D01*
X246748444Y-136941585D01*
X246682753Y-137143760D01*
X246649500Y-137353713D01*
X240500500Y-137353713D01*
X240500500Y-117353713D01*
X246649500Y-117353713D01*
X246649500Y-117566287D01*
X246682754Y-117776243D01*
X246718509Y-117886286D01*
X246748444Y-117978414D01*
X246844951Y-118167820D01*
X246969890Y-118339786D01*
X247120213Y-118490109D01*
X247292182Y-118615050D01*
X247300946Y-118619516D01*
X247351742Y-118667491D01*
X247368536Y-118735312D01*
X247345998Y-118801447D01*
X247300946Y-118840484D01*
X247292182Y-118844949D01*
X247120213Y-118969890D01*
X246969890Y-119120213D01*
X246844951Y-119292179D01*
X246748444Y-119481585D01*
X246682753Y-119683760D01*
X246655778Y-119854075D01*
X246649500Y-119893713D01*
X246649500Y-120106287D01*
X246682754Y-120316243D01*
X246746682Y-120512993D01*
X246748444Y-120518414D01*
X246844951Y-120707820D01*
X246969890Y-120879786D01*
X247120213Y-121030109D01*
X247292179Y-121155048D01*
X247292181Y-121155049D01*
X247292184Y-121155051D01*
X247481588Y-121251557D01*
X247683757Y-121317246D01*
X247893713Y-121350500D01*
X247893714Y-121350500D01*
X248106286Y-121350500D01*
X248106287Y-121350500D01*
X248316243Y-121317246D01*
X248518412Y-121251557D01*
X248707816Y-121155051D01*
X248733670Y-121136267D01*
X248879786Y-121030109D01*
X248879788Y-121030106D01*
X248879792Y-121030104D01*
X249030104Y-120879792D01*
X249030106Y-120879788D01*
X249030109Y-120879786D01*
X249155048Y-120707820D01*
X249155047Y-120707820D01*
X249155051Y-120707816D01*
X249251557Y-120518412D01*
X249317246Y-120316243D01*
X249350500Y-120106287D01*
X249350500Y-119893713D01*
X249317246Y-119683757D01*
X249251557Y-119481588D01*
X249155051Y-119292184D01*
X249155049Y-119292181D01*
X249155048Y-119292179D01*
X249030109Y-119120213D01*
X248879786Y-118969890D01*
X248707820Y-118844951D01*
X248707115Y-118844591D01*
X248699054Y-118840485D01*
X248648259Y-118792512D01*
X248631463Y-118724692D01*
X248653999Y-118658556D01*
X248699054Y-118619515D01*
X248707816Y-118615051D01*
X248729789Y-118599086D01*
X248879786Y-118490109D01*
X248879788Y-118490106D01*
X248879792Y-118490104D01*
X249030104Y-118339792D01*
X249030106Y-118339788D01*
X249030109Y-118339786D01*
X249155048Y-118167820D01*
X249155047Y-118167820D01*
X249155051Y-118167816D01*
X249251557Y-117978412D01*
X249317246Y-117776243D01*
X249350500Y-117566287D01*
X249350500Y-117353713D01*
X249317246Y-117143757D01*
X249251557Y-116941588D01*
X249155051Y-116752184D01*
X249155049Y-116752181D01*
X249155048Y-116752179D01*
X249030109Y-116580213D01*
X248916181Y-116466285D01*
X248882696Y-116404962D01*
X248887680Y-116335270D01*
X248929552Y-116279337D01*
X248960529Y-116262422D01*
X249092086Y-116213354D01*
X249092093Y-116213350D01*
X249207187Y-116127190D01*
X249207190Y-116127187D01*
X249293350Y-116012093D01*
X249293354Y-116012086D01*
X249343596Y-115877379D01*
X249343598Y-115877372D01*
X249349999Y-115817844D01*
X249350000Y-115817827D01*
X249350000Y-115170000D01*
X248433012Y-115170000D01*
X248465925Y-115112993D01*
X248500000Y-114985826D01*
X248500000Y-114854174D01*
X248465925Y-114727007D01*
X248433012Y-114670000D01*
X249350000Y-114670000D01*
X249350000Y-114022172D01*
X249349999Y-114022155D01*
X249343598Y-113962627D01*
X249343596Y-113962620D01*
X249293354Y-113827913D01*
X249293350Y-113827906D01*
X249207190Y-113712812D01*
X249207187Y-113712809D01*
X249092093Y-113626649D01*
X249092086Y-113626645D01*
X248957379Y-113576403D01*
X248957372Y-113576401D01*
X248897844Y-113570000D01*
X248250000Y-113570000D01*
X248250000Y-114486988D01*
X248192993Y-114454075D01*
X248065826Y-114420000D01*
X247934174Y-114420000D01*
X247807007Y-114454075D01*
X247750000Y-114486988D01*
X247750000Y-113570000D01*
X247102155Y-113570000D01*
X247042627Y-113576401D01*
X247042620Y-113576403D01*
X246907913Y-113626645D01*
X246907906Y-113626649D01*
X246792812Y-113712809D01*
X246792809Y-113712812D01*
X246706649Y-113827906D01*
X246706645Y-113827913D01*
X246656403Y-113962620D01*
X246656401Y-113962627D01*
X246650000Y-114022155D01*
X246650000Y-114670000D01*
X247566988Y-114670000D01*
X247534075Y-114727007D01*
X247500000Y-114854174D01*
X247500000Y-114985826D01*
X247534075Y-115112993D01*
X247566988Y-115170000D01*
X246650000Y-115170000D01*
X246650000Y-115817844D01*
X246656401Y-115877372D01*
X246656403Y-115877379D01*
X246706645Y-116012086D01*
X246706649Y-116012093D01*
X246792809Y-116127187D01*
X246792812Y-116127190D01*
X246907906Y-116213350D01*
X246907913Y-116213354D01*
X247039470Y-116262422D01*
X247095404Y-116304293D01*
X247119821Y-116369758D01*
X247104969Y-116438031D01*
X247083819Y-116466285D01*
X246969889Y-116580215D01*
X246844951Y-116752179D01*
X246748444Y-116941585D01*
X246682753Y-117143760D01*
X246664092Y-117261585D01*
X246649500Y-117353713D01*
X240500500Y-117353713D01*
X240500500Y-109934110D01*
X240500500Y-109934108D01*
X240466392Y-109806814D01*
X240400500Y-109692686D01*
X240307314Y-109599500D01*
X240250250Y-109566554D01*
X240193187Y-109533608D01*
X240129539Y-109516554D01*
X240065892Y-109499500D01*
X210065892Y-109499500D01*
X209934108Y-109499500D01*
X209806812Y-109533608D01*
X209692686Y-109599500D01*
X209692683Y-109599502D01*
X209599502Y-109692683D01*
X209599500Y-109692686D01*
X209533608Y-109806812D01*
X209499500Y-109934108D01*
X209499500Y-131375500D01*
X209479815Y-131442539D01*
X209427011Y-131488294D01*
X209375500Y-131499500D01*
X77934108Y-131499500D01*
X77806812Y-131533608D01*
X77692686Y-131599500D01*
X77692683Y-131599502D01*
X77599502Y-131692683D01*
X77599500Y-131692686D01*
X77533608Y-131806812D01*
X77499500Y-131934108D01*
X77499500Y-166375500D01*
X77479815Y-166442539D01*
X77427011Y-166488294D01*
X77375500Y-166499500D01*
X60629010Y-166499500D01*
X60561971Y-166479815D01*
X60516216Y-166427011D01*
X60505013Y-166374608D01*
X60558787Y-158899983D01*
X62119500Y-158899983D01*
X62119500Y-161100001D01*
X62119501Y-161100018D01*
X62130000Y-161202796D01*
X62130001Y-161202799D01*
X62180962Y-161356587D01*
X62185186Y-161369334D01*
X62277288Y-161518656D01*
X62401344Y-161642712D01*
X62550666Y-161734814D01*
X62717203Y-161789999D01*
X62819991Y-161800500D01*
X65020008Y-161800499D01*
X65122797Y-161789999D01*
X65289334Y-161734814D01*
X65438656Y-161642712D01*
X65562712Y-161518656D01*
X65654814Y-161369334D01*
X65709999Y-161202797D01*
X65720500Y-161100009D01*
X65720499Y-159881995D01*
X67199500Y-159881995D01*
X67199500Y-160118004D01*
X67199501Y-160118020D01*
X67230306Y-160352010D01*
X67291394Y-160579993D01*
X67381714Y-160798045D01*
X67381719Y-160798056D01*
X67452677Y-160920957D01*
X67499727Y-161002450D01*
X67499729Y-161002453D01*
X67499730Y-161002454D01*
X67643406Y-161189697D01*
X67643412Y-161189704D01*
X67810295Y-161356587D01*
X67810302Y-161356593D01*
X67826909Y-161369336D01*
X67997550Y-161500273D01*
X68128918Y-161576118D01*
X68201943Y-161618280D01*
X68201948Y-161618282D01*
X68201951Y-161618284D01*
X68420007Y-161708606D01*
X68647986Y-161769693D01*
X68881989Y-161800500D01*
X68881996Y-161800500D01*
X69118004Y-161800500D01*
X69118011Y-161800500D01*
X69352014Y-161769693D01*
X69579993Y-161708606D01*
X69798049Y-161618284D01*
X70002450Y-161500273D01*
X70189699Y-161356592D01*
X70356592Y-161189699D01*
X70500273Y-161002450D01*
X70618284Y-160798049D01*
X70708606Y-160579993D01*
X70769693Y-160352014D01*
X70800500Y-160118011D01*
X70800500Y-159881989D01*
X70769693Y-159647986D01*
X70708606Y-159420007D01*
X70618284Y-159201951D01*
X70618282Y-159201948D01*
X70618280Y-159201943D01*
X70576118Y-159128918D01*
X70500273Y-158997550D01*
X70356592Y-158810301D01*
X70356587Y-158810295D01*
X70189704Y-158643412D01*
X70189697Y-158643406D01*
X70002454Y-158499730D01*
X70002453Y-158499729D01*
X70002450Y-158499727D01*
X69920957Y-158452677D01*
X69798056Y-158381719D01*
X69798045Y-158381714D01*
X69579993Y-158291394D01*
X69352010Y-158230306D01*
X69118020Y-158199501D01*
X69118017Y-158199500D01*
X69118011Y-158199500D01*
X68881989Y-158199500D01*
X68881983Y-158199500D01*
X68881979Y-158199501D01*
X68647989Y-158230306D01*
X68420006Y-158291394D01*
X68201954Y-158381714D01*
X68201943Y-158381719D01*
X67997545Y-158499730D01*
X67810302Y-158643406D01*
X67810295Y-158643412D01*
X67643412Y-158810295D01*
X67643406Y-158810302D01*
X67499730Y-158997545D01*
X67381719Y-159201943D01*
X67381714Y-159201954D01*
X67291394Y-159420006D01*
X67230306Y-159647989D01*
X67199501Y-159881979D01*
X67199500Y-159881995D01*
X65720499Y-159881995D01*
X65720499Y-158899992D01*
X65709999Y-158797203D01*
X65654814Y-158630666D01*
X65562712Y-158481344D01*
X65438656Y-158357288D01*
X65289334Y-158265186D01*
X65122797Y-158210001D01*
X65122795Y-158210000D01*
X65020010Y-158199500D01*
X62819998Y-158199500D01*
X62819981Y-158199501D01*
X62717203Y-158210000D01*
X62717200Y-158210001D01*
X62550668Y-158265185D01*
X62550663Y-158265187D01*
X62401342Y-158357289D01*
X62277289Y-158481342D01*
X62185187Y-158630663D01*
X62185185Y-158630668D01*
X62180962Y-158643412D01*
X62130001Y-158797203D01*
X62130001Y-158797204D01*
X62130000Y-158797204D01*
X62119500Y-158899983D01*
X60558787Y-158899983D01*
X60558816Y-158895942D01*
X60649381Y-146307314D01*
X60818297Y-122828034D01*
X133499500Y-122828034D01*
X133499500Y-123171965D01*
X133533210Y-123514249D01*
X133600308Y-123851572D01*
X133700150Y-124180706D01*
X133831770Y-124498464D01*
X133831772Y-124498469D01*
X133993893Y-124801775D01*
X133993904Y-124801793D01*
X134184975Y-125087751D01*
X134184985Y-125087765D01*
X134403176Y-125353632D01*
X134646367Y-125596823D01*
X134646372Y-125596827D01*
X134646373Y-125596828D01*
X134912240Y-125815019D01*
X135198213Y-126006100D01*
X135198222Y-126006105D01*
X135198224Y-126006106D01*
X135501530Y-126168227D01*
X135501532Y-126168227D01*
X135501538Y-126168231D01*
X135819295Y-126299850D01*
X136148422Y-126399690D01*
X136485750Y-126466789D01*
X136828031Y-126500500D01*
X136828034Y-126500500D01*
X137171966Y-126500500D01*
X137171969Y-126500500D01*
X137514250Y-126466789D01*
X137851578Y-126399690D01*
X138180705Y-126299850D01*
X138498462Y-126168231D01*
X138801787Y-126006100D01*
X139087760Y-125815019D01*
X139353627Y-125596828D01*
X139596828Y-125353627D01*
X139815019Y-125087760D01*
X140006100Y-124801787D01*
X140168231Y-124498462D01*
X140299850Y-124180705D01*
X140399690Y-123851578D01*
X140466789Y-123514250D01*
X140500500Y-123171969D01*
X140500500Y-122828031D01*
X140466789Y-122485750D01*
X140399690Y-122148422D01*
X140299850Y-121819295D01*
X140168231Y-121501538D01*
X140168227Y-121501530D01*
X140138795Y-121446466D01*
X140138794Y-121446465D01*
X140080755Y-121337883D01*
X140006100Y-121198213D01*
X139815019Y-120912240D01*
X139596828Y-120646373D01*
X139596827Y-120646372D01*
X139596823Y-120646367D01*
X139353632Y-120403176D01*
X139233680Y-120304734D01*
X139087765Y-120184985D01*
X139087764Y-120184984D01*
X139087760Y-120184981D01*
X138801787Y-119993900D01*
X138801782Y-119993897D01*
X138801775Y-119993893D01*
X138498469Y-119831772D01*
X138498464Y-119831770D01*
X138180706Y-119700150D01*
X137851572Y-119600308D01*
X137514248Y-119533210D01*
X137514249Y-119533210D01*
X137256456Y-119507821D01*
X137171969Y-119499500D01*
X136828031Y-119499500D01*
X136749966Y-119507188D01*
X136485750Y-119533210D01*
X136148427Y-119600308D01*
X135819293Y-119700150D01*
X135501535Y-119831770D01*
X135501530Y-119831772D01*
X135198224Y-119993893D01*
X135198206Y-119993904D01*
X134912248Y-120184975D01*
X134912234Y-120184985D01*
X134646367Y-120403176D01*
X134403176Y-120646367D01*
X134184985Y-120912234D01*
X134184975Y-120912248D01*
X133993904Y-121198206D01*
X133993893Y-121198224D01*
X133831772Y-121501530D01*
X133831770Y-121501535D01*
X133700150Y-121819293D01*
X133600308Y-122148427D01*
X133533210Y-122485750D01*
X133499500Y-122828034D01*
X60818297Y-122828034D01*
X61441437Y-36211456D01*
X62449500Y-36211456D01*
X62449500Y-100628542D01*
X62451464Y-100638414D01*
X62462730Y-100695051D01*
X62487949Y-100821836D01*
X62510038Y-100875165D01*
X62513161Y-100882706D01*
X62513162Y-100882707D01*
X62563366Y-101003911D01*
X62563371Y-101003920D01*
X62672860Y-101167781D01*
X62672863Y-101167785D01*
X62816537Y-101311459D01*
X62816559Y-101311479D01*
X63613576Y-102108496D01*
X63647061Y-102169819D01*
X63649350Y-102185344D01*
X63679898Y-102378211D01*
X63682754Y-102396243D01*
X63733919Y-102553713D01*
X63748444Y-102598414D01*
X63844951Y-102787820D01*
X63969890Y-102959786D01*
X64120213Y-103110109D01*
X64292182Y-103235050D01*
X64300946Y-103239516D01*
X64351742Y-103287491D01*
X64368536Y-103355312D01*
X64345998Y-103421447D01*
X64300946Y-103460484D01*
X64292182Y-103464949D01*
X64120213Y-103589890D01*
X63969890Y-103740213D01*
X63844951Y-103912179D01*
X63748444Y-104101585D01*
X63682753Y-104303760D01*
X63649500Y-104513713D01*
X63649500Y-104726286D01*
X63680364Y-104921158D01*
X63682754Y-104936243D01*
X63733919Y-105093713D01*
X63748444Y-105138414D01*
X63844951Y-105327820D01*
X63969890Y-105499786D01*
X64120213Y-105650109D01*
X64292179Y-105775048D01*
X64292181Y-105775049D01*
X64292184Y-105775051D01*
X64481588Y-105871557D01*
X64683757Y-105937246D01*
X64893713Y-105970500D01*
X64893714Y-105970500D01*
X65106286Y-105970500D01*
X65106287Y-105970500D01*
X65316243Y-105937246D01*
X65518412Y-105871557D01*
X65707816Y-105775051D01*
X65785771Y-105718414D01*
X65879786Y-105650109D01*
X65879788Y-105650106D01*
X65879792Y-105650104D01*
X66030104Y-105499792D01*
X66030106Y-105499788D01*
X66030109Y-105499786D01*
X66155048Y-105327820D01*
X66155047Y-105327820D01*
X66155051Y-105327816D01*
X66251557Y-105138412D01*
X66317246Y-104936243D01*
X66350500Y-104726287D01*
X66350500Y-104513713D01*
X66317246Y-104303757D01*
X66251557Y-104101588D01*
X66155051Y-103912184D01*
X66155049Y-103912181D01*
X66155048Y-103912179D01*
X66030109Y-103740213D01*
X65879786Y-103589890D01*
X65707820Y-103464951D01*
X65707115Y-103464591D01*
X65699054Y-103460485D01*
X65648259Y-103412512D01*
X65631463Y-103344692D01*
X65653999Y-103278556D01*
X65699054Y-103239515D01*
X65707816Y-103235051D01*
X65785771Y-103178414D01*
X65879786Y-103110109D01*
X65879788Y-103110106D01*
X65879792Y-103110104D01*
X66030104Y-102959792D01*
X66030106Y-102959788D01*
X66030109Y-102959786D01*
X66155048Y-102787820D01*
X66155047Y-102787820D01*
X66155051Y-102787816D01*
X66251557Y-102598412D01*
X66317246Y-102396243D01*
X66350500Y-102186287D01*
X66350500Y-101973713D01*
X66317246Y-101763757D01*
X66251557Y-101561588D01*
X66155051Y-101372184D01*
X66155049Y-101372181D01*
X66155048Y-101372179D01*
X66030109Y-101200213D01*
X65879786Y-101049890D01*
X65707820Y-100924951D01*
X65707115Y-100924591D01*
X65699054Y-100920485D01*
X65648259Y-100872512D01*
X65631463Y-100804692D01*
X65653999Y-100738556D01*
X65699054Y-100699515D01*
X65707816Y-100695051D01*
X65785771Y-100638414D01*
X65879786Y-100570109D01*
X65879788Y-100570106D01*
X65879792Y-100570104D01*
X66030104Y-100419792D01*
X66030106Y-100419788D01*
X66030109Y-100419786D01*
X66155048Y-100247820D01*
X66155049Y-100247819D01*
X66155051Y-100247816D01*
X66251557Y-100058412D01*
X66317246Y-99856243D01*
X66350500Y-99646287D01*
X66350500Y-99646285D01*
X66351262Y-99641475D01*
X66352321Y-99641642D01*
X66375361Y-99581172D01*
X66386416Y-99568503D01*
X70637778Y-95317141D01*
X70637782Y-95317139D01*
X70777139Y-95177782D01*
X70886632Y-95013914D01*
X70939961Y-94885165D01*
X70962051Y-94831836D01*
X71000500Y-94638540D01*
X71000500Y-94441460D01*
X71000500Y-91813713D01*
X78649500Y-91813713D01*
X78649500Y-92026286D01*
X78682319Y-92233501D01*
X78682754Y-92236243D01*
X78733919Y-92393713D01*
X78748444Y-92438414D01*
X78844951Y-92627820D01*
X78969890Y-92799786D01*
X79120213Y-92950109D01*
X79292182Y-93075050D01*
X79300946Y-93079516D01*
X79351742Y-93127491D01*
X79368536Y-93195312D01*
X79345998Y-93261447D01*
X79300946Y-93300484D01*
X79292182Y-93304949D01*
X79120213Y-93429890D01*
X78969890Y-93580213D01*
X78844951Y-93752179D01*
X78748444Y-93941585D01*
X78682753Y-94143760D01*
X78649500Y-94353713D01*
X78649500Y-94566286D01*
X78678675Y-94750493D01*
X78682754Y-94776243D01*
X78740119Y-94952795D01*
X78748444Y-94978414D01*
X78844951Y-95167820D01*
X78969890Y-95339786D01*
X79120213Y-95490109D01*
X79292179Y-95615048D01*
X79292181Y-95615049D01*
X79292184Y-95615051D01*
X79301493Y-95619794D01*
X79352290Y-95667766D01*
X79369087Y-95735587D01*
X79346552Y-95801722D01*
X79301505Y-95840760D01*
X79292446Y-95845376D01*
X79292440Y-95845380D01*
X79238282Y-95884727D01*
X79238282Y-95884728D01*
X79870591Y-96517037D01*
X79807007Y-96534075D01*
X79692993Y-96599901D01*
X79599901Y-96692993D01*
X79534075Y-96807007D01*
X79517037Y-96870591D01*
X78884728Y-96238282D01*
X78884727Y-96238282D01*
X78845380Y-96292439D01*
X78748904Y-96481782D01*
X78683242Y-96683869D01*
X78683242Y-96683872D01*
X78650000Y-96893753D01*
X78650000Y-97106246D01*
X78683242Y-97316127D01*
X78683242Y-97316130D01*
X78748904Y-97518217D01*
X78845375Y-97707550D01*
X78884728Y-97761716D01*
X79517037Y-97129408D01*
X79534075Y-97192993D01*
X79599901Y-97307007D01*
X79692993Y-97400099D01*
X79807007Y-97465925D01*
X79870590Y-97482962D01*
X79238282Y-98115269D01*
X79238282Y-98115270D01*
X79292452Y-98154626D01*
X79292451Y-98154626D01*
X79301495Y-98159234D01*
X79352292Y-98207208D01*
X79369087Y-98275029D01*
X79346550Y-98341164D01*
X79301499Y-98380202D01*
X79292182Y-98384949D01*
X79120213Y-98509890D01*
X78969890Y-98660213D01*
X78844951Y-98832179D01*
X78748444Y-99021585D01*
X78682753Y-99223760D01*
X78649500Y-99433713D01*
X78649500Y-99646286D01*
X78678941Y-99832172D01*
X78682754Y-99856243D01*
X78739618Y-100031253D01*
X78748444Y-100058414D01*
X78844951Y-100247820D01*
X78969890Y-100419786D01*
X79120213Y-100570109D01*
X79292182Y-100695050D01*
X79300946Y-100699516D01*
X79351742Y-100747491D01*
X79368536Y-100815312D01*
X79345998Y-100881447D01*
X79300946Y-100920484D01*
X79292182Y-100924949D01*
X79120213Y-101049890D01*
X78969890Y-101200213D01*
X78844951Y-101372179D01*
X78748444Y-101561585D01*
X78682753Y-101763760D01*
X78671917Y-101832179D01*
X78649500Y-101973713D01*
X78649500Y-102186287D01*
X78682754Y-102396243D01*
X78733919Y-102553713D01*
X78748444Y-102598414D01*
X78844951Y-102787820D01*
X78969890Y-102959786D01*
X79083430Y-103073326D01*
X79116915Y-103134649D01*
X79111931Y-103204341D01*
X79070059Y-103260274D01*
X79039083Y-103277189D01*
X78907669Y-103326203D01*
X78907664Y-103326206D01*
X78792455Y-103412452D01*
X78792452Y-103412455D01*
X78706206Y-103527664D01*
X78706202Y-103527671D01*
X78655908Y-103662517D01*
X78649501Y-103722116D01*
X78649501Y-103722123D01*
X78649500Y-103722135D01*
X78649500Y-105517870D01*
X78649501Y-105517876D01*
X78655908Y-105577483D01*
X78706202Y-105712328D01*
X78706206Y-105712335D01*
X78792452Y-105827544D01*
X78792455Y-105827547D01*
X78907664Y-105913793D01*
X78907671Y-105913797D01*
X79042517Y-105964091D01*
X79042516Y-105964091D01*
X79049444Y-105964835D01*
X79102127Y-105970500D01*
X80897872Y-105970499D01*
X80957483Y-105964091D01*
X81092331Y-105913796D01*
X81207546Y-105827546D01*
X81293796Y-105712331D01*
X81344091Y-105577483D01*
X81350500Y-105517873D01*
X81350499Y-104921153D01*
X142199500Y-104921153D01*
X142199500Y-105078846D01*
X142230261Y-105233489D01*
X142230264Y-105233501D01*
X142290602Y-105379172D01*
X142290609Y-105379185D01*
X142378210Y-105510288D01*
X142378213Y-105510292D01*
X142489707Y-105621786D01*
X142489711Y-105621789D01*
X142620814Y-105709390D01*
X142620827Y-105709397D01*
X142766498Y-105769735D01*
X142766503Y-105769737D01*
X142921153Y-105800499D01*
X142921156Y-105800500D01*
X142921158Y-105800500D01*
X143078844Y-105800500D01*
X143078845Y-105800499D01*
X143233497Y-105769737D01*
X143357403Y-105718414D01*
X143379172Y-105709397D01*
X143379172Y-105709396D01*
X143379179Y-105709394D01*
X143473459Y-105646398D01*
X143540136Y-105625520D01*
X143542350Y-105625500D01*
X153457650Y-105625500D01*
X153524689Y-105645185D01*
X153526541Y-105646398D01*
X153620821Y-105709394D01*
X153620823Y-105709395D01*
X153620827Y-105709397D01*
X153766498Y-105769735D01*
X153766503Y-105769737D01*
X153921153Y-105800499D01*
X153921156Y-105800500D01*
X153921158Y-105800500D01*
X154078844Y-105800500D01*
X154078845Y-105800499D01*
X154233497Y-105769737D01*
X154357403Y-105718414D01*
X154379172Y-105709397D01*
X154379172Y-105709396D01*
X154379179Y-105709394D01*
X154510289Y-105621789D01*
X154621789Y-105510289D01*
X154709394Y-105379179D01*
X154769737Y-105233497D01*
X154800500Y-105078842D01*
X154800500Y-104921158D01*
X154800500Y-104921155D01*
X154800499Y-104921153D01*
X154769738Y-104766510D01*
X154769737Y-104766503D01*
X154753079Y-104726286D01*
X154709397Y-104620827D01*
X154709390Y-104620814D01*
X154621789Y-104489711D01*
X154621786Y-104489707D01*
X154510292Y-104378213D01*
X154510288Y-104378210D01*
X154379185Y-104290609D01*
X154379172Y-104290602D01*
X154233501Y-104230264D01*
X154233489Y-104230261D01*
X154078845Y-104199500D01*
X154078842Y-104199500D01*
X153921158Y-104199500D01*
X153921155Y-104199500D01*
X153766510Y-104230261D01*
X153766498Y-104230264D01*
X153620827Y-104290602D01*
X153620815Y-104290609D01*
X153526541Y-104353602D01*
X153459864Y-104374480D01*
X153457650Y-104374500D01*
X143542350Y-104374500D01*
X143475311Y-104354815D01*
X143473459Y-104353602D01*
X143379184Y-104290609D01*
X143379172Y-104290602D01*
X143233501Y-104230264D01*
X143233489Y-104230261D01*
X143078845Y-104199500D01*
X143078842Y-104199500D01*
X142921158Y-104199500D01*
X142921155Y-104199500D01*
X142766510Y-104230261D01*
X142766498Y-104230264D01*
X142620827Y-104290602D01*
X142620814Y-104290609D01*
X142489711Y-104378210D01*
X142489707Y-104378213D01*
X142378213Y-104489707D01*
X142378210Y-104489711D01*
X142290609Y-104620814D01*
X142290602Y-104620827D01*
X142230264Y-104766498D01*
X142230261Y-104766510D01*
X142199500Y-104921153D01*
X81350499Y-104921153D01*
X81350499Y-104561588D01*
X81350499Y-103722129D01*
X81350498Y-103722123D01*
X81350497Y-103722116D01*
X81344091Y-103662517D01*
X81328900Y-103621789D01*
X81293797Y-103527671D01*
X81293793Y-103527664D01*
X81207547Y-103412455D01*
X81207544Y-103412452D01*
X81092335Y-103326206D01*
X81092328Y-103326202D01*
X80960917Y-103277189D01*
X80904983Y-103235318D01*
X80880566Y-103169853D01*
X80895418Y-103101580D01*
X80916563Y-103073332D01*
X81030104Y-102959792D01*
X81030110Y-102959784D01*
X81058177Y-102921153D01*
X142199500Y-102921153D01*
X142199500Y-103078846D01*
X142230261Y-103233489D01*
X142230264Y-103233501D01*
X142290602Y-103379172D01*
X142290609Y-103379185D01*
X142378210Y-103510288D01*
X142378213Y-103510292D01*
X142489707Y-103621786D01*
X142489711Y-103621789D01*
X142620814Y-103709390D01*
X142620827Y-103709397D01*
X142766498Y-103769735D01*
X142766503Y-103769737D01*
X142876199Y-103791557D01*
X142921153Y-103800499D01*
X142921156Y-103800500D01*
X142921158Y-103800500D01*
X143078844Y-103800500D01*
X143078845Y-103800499D01*
X143233497Y-103769737D01*
X143379179Y-103709394D01*
X143473459Y-103646398D01*
X143540136Y-103625520D01*
X143542350Y-103625500D01*
X153457650Y-103625500D01*
X153524689Y-103645185D01*
X153526541Y-103646398D01*
X153620821Y-103709394D01*
X153620823Y-103709395D01*
X153620827Y-103709397D01*
X153766498Y-103769735D01*
X153766503Y-103769737D01*
X153876199Y-103791557D01*
X153921153Y-103800499D01*
X153921156Y-103800500D01*
X153921158Y-103800500D01*
X154078844Y-103800500D01*
X154078845Y-103800499D01*
X154233497Y-103769737D01*
X154379179Y-103709394D01*
X154510289Y-103621789D01*
X154621789Y-103510289D01*
X154709394Y-103379179D01*
X154769737Y-103233497D01*
X154800500Y-103078842D01*
X154800500Y-102921158D01*
X154800500Y-102921155D01*
X154800499Y-102921153D01*
X154769737Y-102766503D01*
X154769647Y-102766286D01*
X154709397Y-102620827D01*
X154709390Y-102620814D01*
X154621789Y-102489711D01*
X154621786Y-102489707D01*
X154510292Y-102378213D01*
X154510288Y-102378210D01*
X154379185Y-102290609D01*
X154379172Y-102290602D01*
X154233501Y-102230264D01*
X154233489Y-102230261D01*
X154078845Y-102199500D01*
X154078842Y-102199500D01*
X153921158Y-102199500D01*
X153921155Y-102199500D01*
X153766510Y-102230261D01*
X153766498Y-102230264D01*
X153620827Y-102290602D01*
X153620815Y-102290609D01*
X153526541Y-102353602D01*
X153459864Y-102374480D01*
X153457650Y-102374500D01*
X143542350Y-102374500D01*
X143475311Y-102354815D01*
X143473459Y-102353602D01*
X143379184Y-102290609D01*
X143379172Y-102290602D01*
X143233501Y-102230264D01*
X143233489Y-102230261D01*
X143078845Y-102199500D01*
X143078842Y-102199500D01*
X142921158Y-102199500D01*
X142921155Y-102199500D01*
X142766510Y-102230261D01*
X142766498Y-102230264D01*
X142620827Y-102290602D01*
X142620814Y-102290609D01*
X142489711Y-102378210D01*
X142489707Y-102378213D01*
X142378213Y-102489707D01*
X142378210Y-102489711D01*
X142290609Y-102620814D01*
X142290602Y-102620827D01*
X142230264Y-102766498D01*
X142230261Y-102766510D01*
X142199500Y-102921153D01*
X81058177Y-102921153D01*
X81115554Y-102842181D01*
X81155048Y-102787820D01*
X81155051Y-102787816D01*
X81251557Y-102598412D01*
X81317246Y-102396243D01*
X81350500Y-102186287D01*
X81350500Y-101973713D01*
X81317246Y-101763757D01*
X81251557Y-101561588D01*
X81155051Y-101372184D01*
X81116088Y-101318556D01*
X81086913Y-101278399D01*
X81086911Y-101278397D01*
X81030104Y-101200208D01*
X80879792Y-101049896D01*
X80879786Y-101049890D01*
X80707820Y-100924951D01*
X80707115Y-100924591D01*
X80699054Y-100920485D01*
X80648259Y-100872512D01*
X80631463Y-100804692D01*
X80653999Y-100738556D01*
X80699054Y-100699515D01*
X80707816Y-100695051D01*
X80785771Y-100638414D01*
X80879786Y-100570109D01*
X80879788Y-100570106D01*
X80879792Y-100570104D01*
X81030104Y-100419792D01*
X81030106Y-100419788D01*
X81030109Y-100419786D01*
X81094983Y-100330493D01*
X81155051Y-100247816D01*
X81251557Y-100058412D01*
X81317246Y-99856243D01*
X81350500Y-99646287D01*
X81350500Y-99433713D01*
X81317246Y-99223757D01*
X81251557Y-99021588D01*
X81155051Y-98832184D01*
X81135494Y-98805266D01*
X81117756Y-98780851D01*
X81117753Y-98780848D01*
X81109681Y-98769738D01*
X81067743Y-98712014D01*
X131700000Y-98712014D01*
X131700000Y-98947985D01*
X131730799Y-99181914D01*
X131791870Y-99409837D01*
X131882160Y-99627819D01*
X131882165Y-99627828D01*
X132000144Y-99832171D01*
X132000145Y-99832172D01*
X132062721Y-99913723D01*
X132898958Y-99077487D01*
X132923978Y-99137890D01*
X132995112Y-99244351D01*
X133085649Y-99334888D01*
X133192110Y-99406022D01*
X133252511Y-99431041D01*
X132416275Y-100267277D01*
X132497827Y-100329854D01*
X132497828Y-100329855D01*
X132702171Y-100447834D01*
X132702180Y-100447839D01*
X132920163Y-100538129D01*
X132920161Y-100538129D01*
X133148085Y-100599200D01*
X133382014Y-100629999D01*
X133382029Y-100630000D01*
X133617971Y-100630000D01*
X133617985Y-100629999D01*
X133851914Y-100599200D01*
X134079837Y-100538129D01*
X134297819Y-100447839D01*
X134297828Y-100447834D01*
X134502181Y-100329850D01*
X134583723Y-100267279D01*
X134583723Y-100267276D01*
X133747487Y-99431041D01*
X133807890Y-99406022D01*
X133914351Y-99334888D01*
X134004888Y-99244351D01*
X134076022Y-99137890D01*
X134101041Y-99077487D01*
X134937276Y-99913723D01*
X134937279Y-99913723D01*
X134999850Y-99832181D01*
X135117834Y-99627828D01*
X135117839Y-99627819D01*
X135208129Y-99409837D01*
X135269200Y-99181914D01*
X135299999Y-98947985D01*
X135300000Y-98947971D01*
X135300000Y-98712028D01*
X135299999Y-98712014D01*
X135269200Y-98478085D01*
X135208129Y-98250162D01*
X135117839Y-98032180D01*
X135117834Y-98032171D01*
X134999855Y-97827828D01*
X134999854Y-97827827D01*
X134937277Y-97746275D01*
X134101041Y-98582511D01*
X134076022Y-98522110D01*
X134004888Y-98415649D01*
X133914351Y-98325112D01*
X133807890Y-98253978D01*
X133747488Y-98228958D01*
X134577785Y-97398660D01*
X134583723Y-97392721D01*
X134502172Y-97330145D01*
X134502171Y-97330144D01*
X134297828Y-97212165D01*
X134297819Y-97212160D01*
X134079836Y-97121870D01*
X134079838Y-97121870D01*
X133851914Y-97060799D01*
X133617985Y-97030000D01*
X133382014Y-97030000D01*
X133148085Y-97060799D01*
X132920162Y-97121870D01*
X132702180Y-97212160D01*
X132702171Y-97212165D01*
X132497828Y-97330144D01*
X132497818Y-97330150D01*
X132416275Y-97392720D01*
X132416275Y-97392721D01*
X133252512Y-98228958D01*
X133192110Y-98253978D01*
X133085649Y-98325112D01*
X132995112Y-98415649D01*
X132923978Y-98522110D01*
X132898958Y-98582512D01*
X132062721Y-97746275D01*
X132062720Y-97746275D01*
X132000150Y-97827818D01*
X132000144Y-97827828D01*
X131882165Y-98032171D01*
X131882160Y-98032180D01*
X131791870Y-98250162D01*
X131730799Y-98478085D01*
X131700000Y-98712014D01*
X81067743Y-98712014D01*
X81030104Y-98660208D01*
X80879792Y-98509896D01*
X80879786Y-98509890D01*
X80707817Y-98384949D01*
X80698504Y-98380204D01*
X80647707Y-98332230D01*
X80630912Y-98264409D01*
X80653449Y-98198274D01*
X80698507Y-98159232D01*
X80707555Y-98154622D01*
X80761716Y-98115270D01*
X80761717Y-98115270D01*
X80129408Y-97482962D01*
X80192993Y-97465925D01*
X80307007Y-97400099D01*
X80400099Y-97307007D01*
X80465925Y-97192993D01*
X80482962Y-97129408D01*
X81115270Y-97761717D01*
X81115270Y-97761716D01*
X81154622Y-97707554D01*
X81251095Y-97518217D01*
X81288741Y-97402356D01*
X81316757Y-97316130D01*
X81316757Y-97316127D01*
X81350000Y-97106246D01*
X81350000Y-96893753D01*
X81316757Y-96683872D01*
X81316757Y-96683869D01*
X81251095Y-96481782D01*
X81154624Y-96292449D01*
X81115270Y-96238282D01*
X81115269Y-96238282D01*
X80482962Y-96870590D01*
X80465925Y-96807007D01*
X80400099Y-96692993D01*
X80307007Y-96599901D01*
X80192993Y-96534075D01*
X80129409Y-96517037D01*
X80761716Y-95884728D01*
X80707547Y-95845373D01*
X80707547Y-95845372D01*
X80698500Y-95840763D01*
X80647706Y-95792788D01*
X80630912Y-95724966D01*
X80653451Y-95658832D01*
X80698508Y-95619793D01*
X80707816Y-95615051D01*
X80787029Y-95557500D01*
X80879786Y-95490109D01*
X80879788Y-95490106D01*
X80879792Y-95490104D01*
X81030104Y-95339792D01*
X81030106Y-95339788D01*
X81030109Y-95339786D01*
X81155048Y-95167820D01*
X81155047Y-95167820D01*
X81155051Y-95167816D01*
X81251557Y-94978412D01*
X81317246Y-94776243D01*
X81350500Y-94566287D01*
X81350500Y-94353713D01*
X81317246Y-94143757D01*
X81251557Y-93941588D01*
X81155051Y-93752184D01*
X81155049Y-93752181D01*
X81155048Y-93752179D01*
X81030109Y-93580213D01*
X80879786Y-93429890D01*
X80707820Y-93304951D01*
X80707115Y-93304591D01*
X80699054Y-93300485D01*
X80648259Y-93252512D01*
X80631463Y-93184692D01*
X80653999Y-93118556D01*
X80699054Y-93079515D01*
X80707816Y-93075051D01*
X80785771Y-93018414D01*
X80879786Y-92950109D01*
X80879788Y-92950106D01*
X80879792Y-92950104D01*
X81030104Y-92799792D01*
X81030106Y-92799788D01*
X81030109Y-92799786D01*
X81155049Y-92627819D01*
X81162497Y-92613203D01*
X81210473Y-92562408D01*
X81272981Y-92545500D01*
X83362060Y-92545500D01*
X83429099Y-92565185D01*
X83449742Y-92581820D01*
X83489707Y-92621786D01*
X83489711Y-92621789D01*
X83620814Y-92709390D01*
X83620827Y-92709397D01*
X83766498Y-92769735D01*
X83766503Y-92769737D01*
X83917569Y-92799786D01*
X83921153Y-92800499D01*
X83921156Y-92800500D01*
X83921158Y-92800500D01*
X84078844Y-92800500D01*
X84078845Y-92800499D01*
X84233497Y-92769737D01*
X84379179Y-92709394D01*
X84468094Y-92649983D01*
X131699500Y-92649983D01*
X131699500Y-94850001D01*
X131699501Y-94850018D01*
X131710000Y-94952796D01*
X131710001Y-94952799D01*
X131734353Y-95026286D01*
X131765186Y-95119334D01*
X131857288Y-95268656D01*
X131981344Y-95392712D01*
X132130666Y-95484814D01*
X132297203Y-95539999D01*
X132399991Y-95550500D01*
X134600008Y-95550499D01*
X134702797Y-95539999D01*
X134869334Y-95484814D01*
X135018656Y-95392712D01*
X135142712Y-95268656D01*
X135234814Y-95119334D01*
X135289999Y-94952797D01*
X135300500Y-94850009D01*
X135300499Y-92649992D01*
X135296034Y-92606287D01*
X135289999Y-92547203D01*
X135289998Y-92547200D01*
X135277767Y-92510289D01*
X135234814Y-92380666D01*
X135142712Y-92231344D01*
X135018656Y-92107288D01*
X134869334Y-92015186D01*
X134702797Y-91960001D01*
X134702795Y-91960000D01*
X134600010Y-91949500D01*
X132399998Y-91949500D01*
X132399981Y-91949501D01*
X132297203Y-91960000D01*
X132297200Y-91960001D01*
X132130668Y-92015185D01*
X132130663Y-92015187D01*
X131981342Y-92107289D01*
X131857289Y-92231342D01*
X131765187Y-92380663D01*
X131765185Y-92380668D01*
X131746051Y-92438412D01*
X131710001Y-92547203D01*
X131710001Y-92547204D01*
X131710000Y-92547204D01*
X131699500Y-92649983D01*
X84468094Y-92649983D01*
X84510289Y-92621789D01*
X84525792Y-92606286D01*
X84572926Y-92559153D01*
X84621786Y-92510292D01*
X84621789Y-92510289D01*
X84709394Y-92379179D01*
X84769737Y-92233497D01*
X84800500Y-92078842D01*
X84800500Y-91921158D01*
X84800500Y-91921155D01*
X84800499Y-91921153D01*
X84788650Y-91861585D01*
X84769737Y-91766503D01*
X84709394Y-91620821D01*
X84709390Y-91620814D01*
X84708602Y-91619635D01*
X139727000Y-91619635D01*
X139727000Y-93415370D01*
X139727001Y-93415376D01*
X139733408Y-93474983D01*
X139783702Y-93609828D01*
X139783706Y-93609835D01*
X139869952Y-93725044D01*
X139869955Y-93725047D01*
X139985164Y-93811293D01*
X139985171Y-93811297D01*
X140029703Y-93827906D01*
X140120017Y-93861591D01*
X140179627Y-93868000D01*
X140190185Y-93867999D01*
X140257223Y-93887679D01*
X140277872Y-93904318D01*
X140948091Y-94574537D01*
X140884507Y-94591575D01*
X140770493Y-94657401D01*
X140677401Y-94750493D01*
X140611575Y-94864507D01*
X140594537Y-94928091D01*
X139962228Y-94295782D01*
X139962227Y-94295782D01*
X139922880Y-94349939D01*
X139826404Y-94539282D01*
X139760742Y-94741369D01*
X139760742Y-94741372D01*
X139727500Y-94951253D01*
X139727500Y-95163746D01*
X139760742Y-95373627D01*
X139760742Y-95373630D01*
X139826404Y-95575717D01*
X139922875Y-95765050D01*
X139962228Y-95819216D01*
X140594537Y-95186908D01*
X140611575Y-95250493D01*
X140677401Y-95364507D01*
X140770493Y-95457599D01*
X140884507Y-95523425D01*
X140948090Y-95540462D01*
X140315782Y-96172769D01*
X140315782Y-96172770D01*
X140369952Y-96212126D01*
X140369951Y-96212126D01*
X140378995Y-96216734D01*
X140429792Y-96264708D01*
X140446587Y-96332529D01*
X140424050Y-96398664D01*
X140378999Y-96437702D01*
X140369682Y-96442449D01*
X140197713Y-96567390D01*
X140047390Y-96717713D01*
X139922451Y-96889679D01*
X139825944Y-97079085D01*
X139760253Y-97281260D01*
X139731005Y-97465925D01*
X139727000Y-97491213D01*
X139727000Y-97703787D01*
X139736175Y-97761716D01*
X139757481Y-97896239D01*
X139760254Y-97913743D01*
X139825734Y-98115270D01*
X139825944Y-98115914D01*
X139922451Y-98305320D01*
X140047390Y-98477286D01*
X140197713Y-98627609D01*
X140369679Y-98752548D01*
X140369681Y-98752549D01*
X140369684Y-98752551D01*
X140378993Y-98757294D01*
X140429790Y-98805266D01*
X140446587Y-98873087D01*
X140424052Y-98939222D01*
X140379005Y-98978260D01*
X140369946Y-98982876D01*
X140369940Y-98982880D01*
X140315782Y-99022227D01*
X140315782Y-99022228D01*
X140948091Y-99654537D01*
X140884507Y-99671575D01*
X140770493Y-99737401D01*
X140677401Y-99830493D01*
X140611575Y-99944507D01*
X140594537Y-100008091D01*
X139962228Y-99375782D01*
X139962227Y-99375782D01*
X139922880Y-99429939D01*
X139826404Y-99619282D01*
X139760742Y-99821369D01*
X139760742Y-99821372D01*
X139727500Y-100031253D01*
X139727500Y-100243746D01*
X139760742Y-100453627D01*
X139760742Y-100453630D01*
X139826404Y-100655717D01*
X139922875Y-100845050D01*
X139962228Y-100899216D01*
X140594537Y-100266908D01*
X140611575Y-100330493D01*
X140677401Y-100444507D01*
X140770493Y-100537599D01*
X140884507Y-100603425D01*
X140948090Y-100620462D01*
X140315782Y-101252769D01*
X140315782Y-101252770D01*
X140369949Y-101292124D01*
X140559282Y-101388595D01*
X140761370Y-101454257D01*
X140971254Y-101487500D01*
X141183746Y-101487500D01*
X141393627Y-101454257D01*
X141393630Y-101454257D01*
X141595717Y-101388595D01*
X141785054Y-101292122D01*
X141839216Y-101252770D01*
X141839217Y-101252770D01*
X141206908Y-100620462D01*
X141270493Y-100603425D01*
X141384507Y-100537599D01*
X141477599Y-100444507D01*
X141543425Y-100330493D01*
X141560462Y-100266908D01*
X142192770Y-100899217D01*
X142192770Y-100899216D01*
X142232122Y-100845054D01*
X142328595Y-100655717D01*
X142394257Y-100453630D01*
X142394257Y-100453627D01*
X142427500Y-100243746D01*
X142427500Y-100031253D01*
X142394257Y-99821372D01*
X142394257Y-99821369D01*
X142328595Y-99619282D01*
X142232124Y-99429949D01*
X142192770Y-99375782D01*
X142192769Y-99375782D01*
X141560462Y-100008090D01*
X141543425Y-99944507D01*
X141477599Y-99830493D01*
X141384507Y-99737401D01*
X141270493Y-99671575D01*
X141206909Y-99654537D01*
X141839216Y-99022228D01*
X141785047Y-98982873D01*
X141785047Y-98982872D01*
X141776000Y-98978263D01*
X141725206Y-98930288D01*
X141708412Y-98862466D01*
X141730951Y-98796332D01*
X141776008Y-98757293D01*
X141785316Y-98752551D01*
X141902392Y-98667491D01*
X141957286Y-98627609D01*
X141957288Y-98627606D01*
X141957292Y-98627604D01*
X142107604Y-98477292D01*
X142107606Y-98477288D01*
X142107609Y-98477286D01*
X142232548Y-98305320D01*
X142232547Y-98305320D01*
X142232551Y-98305316D01*
X142329057Y-98115912D01*
X142394746Y-97913743D01*
X142428000Y-97703787D01*
X142428000Y-97491213D01*
X142394746Y-97281257D01*
X142329057Y-97079088D01*
X142232551Y-96889684D01*
X142232549Y-96889681D01*
X142232548Y-96889679D01*
X142107609Y-96717713D01*
X141957286Y-96567390D01*
X141785317Y-96442449D01*
X141776004Y-96437704D01*
X141725207Y-96389730D01*
X141708412Y-96321909D01*
X141730949Y-96255774D01*
X141776007Y-96216732D01*
X141785055Y-96212122D01*
X141839216Y-96172770D01*
X141839217Y-96172770D01*
X141206908Y-95540462D01*
X141270493Y-95523425D01*
X141384507Y-95457599D01*
X141477599Y-95364507D01*
X141543425Y-95250493D01*
X141560462Y-95186908D01*
X142192770Y-95819217D01*
X142192770Y-95819216D01*
X142232122Y-95765054D01*
X142328595Y-95575717D01*
X142394257Y-95373630D01*
X142394257Y-95373627D01*
X142427500Y-95163746D01*
X142427500Y-94951253D01*
X142394257Y-94741372D01*
X142394257Y-94741369D01*
X142328595Y-94539282D01*
X142232124Y-94349949D01*
X142192770Y-94295782D01*
X142192769Y-94295782D01*
X141560462Y-94928090D01*
X141543425Y-94864507D01*
X141477599Y-94750493D01*
X141384507Y-94657401D01*
X141270493Y-94591575D01*
X141206909Y-94574537D01*
X141877127Y-93904318D01*
X141938450Y-93870833D01*
X141964807Y-93867999D01*
X141975372Y-93867999D01*
X142034983Y-93861591D01*
X142169831Y-93811296D01*
X142285046Y-93725046D01*
X142371296Y-93609831D01*
X142421591Y-93474983D01*
X142428000Y-93415373D01*
X142427999Y-91619628D01*
X142421591Y-91560017D01*
X142371296Y-91425169D01*
X142371295Y-91425168D01*
X142371293Y-91425164D01*
X142285047Y-91309955D01*
X142285044Y-91309952D01*
X142169835Y-91223706D01*
X142169828Y-91223702D01*
X142034982Y-91173408D01*
X142034983Y-91173408D01*
X141975383Y-91167001D01*
X141975381Y-91167000D01*
X141975373Y-91167000D01*
X141975364Y-91167000D01*
X140179629Y-91167000D01*
X140179623Y-91167001D01*
X140120016Y-91173408D01*
X139985171Y-91223702D01*
X139985164Y-91223706D01*
X139869955Y-91309952D01*
X139869952Y-91309955D01*
X139783706Y-91425164D01*
X139783702Y-91425171D01*
X139733408Y-91560017D01*
X139728706Y-91603757D01*
X139727001Y-91619623D01*
X139727000Y-91619635D01*
X84708602Y-91619635D01*
X84621789Y-91489711D01*
X84621786Y-91489707D01*
X84510292Y-91378213D01*
X84510288Y-91378210D01*
X84379185Y-91290609D01*
X84379172Y-91290602D01*
X84233501Y-91230264D01*
X84233489Y-91230261D01*
X84078845Y-91199500D01*
X84078842Y-91199500D01*
X83921158Y-91199500D01*
X83921155Y-91199500D01*
X83766510Y-91230261D01*
X83766498Y-91230264D01*
X83634207Y-91285061D01*
X83586755Y-91294500D01*
X81272981Y-91294500D01*
X81205942Y-91274815D01*
X81162497Y-91226797D01*
X81155049Y-91212180D01*
X81030109Y-91040213D01*
X80879786Y-90889890D01*
X80707820Y-90764951D01*
X80518414Y-90668444D01*
X80518413Y-90668443D01*
X80518412Y-90668443D01*
X80316243Y-90602754D01*
X80316241Y-90602753D01*
X80316240Y-90602753D01*
X80154957Y-90577208D01*
X80106287Y-90569500D01*
X79893713Y-90569500D01*
X79845042Y-90577208D01*
X79683760Y-90602753D01*
X79481585Y-90668444D01*
X79292179Y-90764951D01*
X79120213Y-90889890D01*
X78969890Y-91040213D01*
X78844951Y-91212179D01*
X78748444Y-91401585D01*
X78682753Y-91603760D01*
X78649500Y-91813713D01*
X71000500Y-91813713D01*
X71000500Y-77828034D01*
X133499500Y-77828034D01*
X133499500Y-78171965D01*
X133533210Y-78514249D01*
X133600308Y-78851572D01*
X133700150Y-79180706D01*
X133831770Y-79498464D01*
X133831772Y-79498469D01*
X133993893Y-79801775D01*
X133993904Y-79801793D01*
X134184975Y-80087751D01*
X134184985Y-80087765D01*
X134403176Y-80353632D01*
X134646367Y-80596823D01*
X134646372Y-80596827D01*
X134646373Y-80596828D01*
X134912240Y-80815019D01*
X135198213Y-81006100D01*
X135198222Y-81006105D01*
X135198224Y-81006106D01*
X135501530Y-81168227D01*
X135501532Y-81168227D01*
X135501538Y-81168231D01*
X135819295Y-81299850D01*
X136148422Y-81399690D01*
X136485750Y-81466789D01*
X136828031Y-81500500D01*
X136828034Y-81500500D01*
X137171966Y-81500500D01*
X137171969Y-81500500D01*
X137514250Y-81466789D01*
X137851578Y-81399690D01*
X138180705Y-81299850D01*
X138498462Y-81168231D01*
X138801787Y-81006100D01*
X139087760Y-80815019D01*
X139353627Y-80596828D01*
X139596828Y-80353627D01*
X139815019Y-80087760D01*
X140006100Y-79801787D01*
X140168231Y-79498462D01*
X140299850Y-79180705D01*
X140399690Y-78851578D01*
X140466789Y-78514250D01*
X140500500Y-78171969D01*
X140500500Y-77828031D01*
X140466789Y-77485750D01*
X140399690Y-77148422D01*
X140299850Y-76819295D01*
X140168231Y-76501538D01*
X140131160Y-76432184D01*
X140006106Y-76198224D01*
X140006105Y-76198222D01*
X140006100Y-76198213D01*
X139815019Y-75912240D01*
X139596828Y-75646373D01*
X139596827Y-75646372D01*
X139596823Y-75646367D01*
X139353632Y-75403176D01*
X139087765Y-75184985D01*
X139087764Y-75184984D01*
X139087760Y-75184981D01*
X138801787Y-74993900D01*
X138801782Y-74993897D01*
X138801775Y-74993893D01*
X138498469Y-74831772D01*
X138498464Y-74831770D01*
X138485224Y-74826286D01*
X138245544Y-74727007D01*
X138180706Y-74700150D01*
X137851572Y-74600308D01*
X137514248Y-74533210D01*
X137514249Y-74533210D01*
X137256456Y-74507821D01*
X137171969Y-74499500D01*
X136828031Y-74499500D01*
X136749966Y-74507188D01*
X136485750Y-74533210D01*
X136148427Y-74600308D01*
X135819293Y-74700150D01*
X135501535Y-74831770D01*
X135501530Y-74831772D01*
X135198224Y-74993893D01*
X135198206Y-74993904D01*
X134912248Y-75184975D01*
X134912234Y-75184985D01*
X134646367Y-75403176D01*
X134403176Y-75646367D01*
X134184985Y-75912234D01*
X134184975Y-75912248D01*
X133993904Y-76198206D01*
X133993893Y-76198224D01*
X133831772Y-76501530D01*
X133831770Y-76501535D01*
X133700150Y-76819293D01*
X133600308Y-77148427D01*
X133533210Y-77485750D01*
X133499500Y-77828034D01*
X71000500Y-77828034D01*
X71000500Y-73702135D01*
X176449500Y-73702135D01*
X176449500Y-75497870D01*
X176449501Y-75497876D01*
X176455908Y-75557483D01*
X176506202Y-75692328D01*
X176506206Y-75692335D01*
X176592452Y-75807544D01*
X176592455Y-75807547D01*
X176707664Y-75893793D01*
X176707671Y-75893797D01*
X176839082Y-75942810D01*
X176895016Y-75984681D01*
X176919433Y-76050145D01*
X176904582Y-76118418D01*
X176883431Y-76146673D01*
X176769889Y-76260215D01*
X176644951Y-76432179D01*
X176548444Y-76621585D01*
X176482753Y-76823760D01*
X176464092Y-76941585D01*
X176449500Y-77033713D01*
X176449500Y-77246287D01*
X176482754Y-77456243D01*
X176521743Y-77576239D01*
X176548444Y-77658414D01*
X176644951Y-77847820D01*
X176769890Y-78019786D01*
X176920213Y-78170109D01*
X177092182Y-78295050D01*
X177100946Y-78299516D01*
X177151742Y-78347491D01*
X177168536Y-78415312D01*
X177145998Y-78481447D01*
X177100946Y-78520484D01*
X177092182Y-78524949D01*
X176920213Y-78649890D01*
X176769890Y-78800213D01*
X176644951Y-78972179D01*
X176548444Y-79161585D01*
X176548443Y-79161587D01*
X176548443Y-79161588D01*
X176542231Y-79180706D01*
X176482753Y-79363760D01*
X176449500Y-79573713D01*
X176449500Y-79786287D01*
X176482754Y-79996243D01*
X176521743Y-80116239D01*
X176548444Y-80198414D01*
X176644951Y-80387820D01*
X176769890Y-80559786D01*
X176920213Y-80710109D01*
X177092182Y-80835050D01*
X177100946Y-80839516D01*
X177151742Y-80887491D01*
X177168536Y-80955312D01*
X177145998Y-81021447D01*
X177100946Y-81060484D01*
X177092182Y-81064949D01*
X176920213Y-81189890D01*
X176769890Y-81340213D01*
X176644951Y-81512179D01*
X176548444Y-81701585D01*
X176482753Y-81903760D01*
X176463748Y-82023757D01*
X176449500Y-82113713D01*
X176449500Y-82326287D01*
X176482754Y-82536243D01*
X176521743Y-82656239D01*
X176548444Y-82738414D01*
X176644951Y-82927820D01*
X176769890Y-83099786D01*
X176920213Y-83250109D01*
X177092182Y-83375050D01*
X177100946Y-83379516D01*
X177151742Y-83427491D01*
X177168536Y-83495312D01*
X177145998Y-83561447D01*
X177100946Y-83600484D01*
X177092182Y-83604949D01*
X176920213Y-83729890D01*
X176769890Y-83880213D01*
X176644951Y-84052179D01*
X176548444Y-84241585D01*
X176482753Y-84443760D01*
X176463748Y-84563757D01*
X176449500Y-84653713D01*
X176449500Y-84866287D01*
X176482754Y-85076243D01*
X176521743Y-85196239D01*
X176548444Y-85278414D01*
X176644951Y-85467820D01*
X176769890Y-85639786D01*
X176920213Y-85790109D01*
X177092182Y-85915050D01*
X177100946Y-85919516D01*
X177151742Y-85967491D01*
X177168536Y-86035312D01*
X177145998Y-86101447D01*
X177100946Y-86140484D01*
X177092182Y-86144949D01*
X176920213Y-86269890D01*
X176769890Y-86420213D01*
X176644951Y-86592179D01*
X176548444Y-86781585D01*
X176482753Y-86983760D01*
X176449500Y-87193713D01*
X176449500Y-87406286D01*
X176482753Y-87616239D01*
X176548444Y-87818414D01*
X176644951Y-88007820D01*
X176769890Y-88179786D01*
X176920213Y-88330109D01*
X177092182Y-88455050D01*
X177100946Y-88459516D01*
X177151742Y-88507491D01*
X177168536Y-88575312D01*
X177145998Y-88641447D01*
X177100946Y-88680484D01*
X177092182Y-88684949D01*
X176920213Y-88809890D01*
X176769890Y-88960213D01*
X176644951Y-89132179D01*
X176548444Y-89321585D01*
X176482753Y-89523760D01*
X176463748Y-89643757D01*
X176449500Y-89733713D01*
X176449500Y-89946287D01*
X176482754Y-90156243D01*
X176521743Y-90276239D01*
X176548444Y-90358414D01*
X176644951Y-90547820D01*
X176769890Y-90719786D01*
X176920213Y-90870109D01*
X177092182Y-90995050D01*
X177100946Y-90999516D01*
X177151742Y-91047491D01*
X177168536Y-91115312D01*
X177145998Y-91181447D01*
X177100946Y-91220484D01*
X177092182Y-91224949D01*
X176920213Y-91349890D01*
X176769890Y-91500213D01*
X176644951Y-91672179D01*
X176548444Y-91861585D01*
X176482753Y-92063760D01*
X176480364Y-92078844D01*
X176449500Y-92273713D01*
X176449500Y-92486287D01*
X176453302Y-92510289D01*
X176475428Y-92649992D01*
X176482754Y-92696243D01*
X176541642Y-92877482D01*
X176548444Y-92898414D01*
X176644951Y-93087820D01*
X176769890Y-93259786D01*
X176920213Y-93410109D01*
X177092182Y-93535050D01*
X177100946Y-93539516D01*
X177151742Y-93587491D01*
X177168536Y-93655312D01*
X177145998Y-93721447D01*
X177100946Y-93760484D01*
X177092182Y-93764949D01*
X176920213Y-93889890D01*
X176769890Y-94040213D01*
X176644951Y-94212179D01*
X176548444Y-94401585D01*
X176482753Y-94603760D01*
X176449500Y-94813713D01*
X176449500Y-95026286D01*
X176473494Y-95177782D01*
X176482754Y-95236243D01*
X176533593Y-95392710D01*
X176548444Y-95438414D01*
X176644951Y-95627820D01*
X176769890Y-95799786D01*
X176920213Y-95950109D01*
X177092182Y-96075050D01*
X177100946Y-96079516D01*
X177151742Y-96127491D01*
X177168536Y-96195312D01*
X177145998Y-96261447D01*
X177100946Y-96300484D01*
X177092182Y-96304949D01*
X176920213Y-96429890D01*
X176769890Y-96580213D01*
X176644951Y-96752179D01*
X176548444Y-96941585D01*
X176482753Y-97143760D01*
X176449500Y-97353713D01*
X176449500Y-97566286D01*
X176481210Y-97766498D01*
X176482754Y-97776243D01*
X176529838Y-97921153D01*
X176548444Y-97978414D01*
X176644951Y-98167820D01*
X176769890Y-98339786D01*
X176920213Y-98490109D01*
X177092182Y-98615050D01*
X177100946Y-98619516D01*
X177151742Y-98667491D01*
X177168536Y-98735312D01*
X177145998Y-98801447D01*
X177100946Y-98840484D01*
X177092182Y-98844949D01*
X176920213Y-98969890D01*
X176769890Y-99120213D01*
X176644951Y-99292179D01*
X176548444Y-99481585D01*
X176482753Y-99683760D01*
X176449500Y-99893713D01*
X176449500Y-100106286D01*
X176471916Y-100247819D01*
X176482754Y-100316243D01*
X176525512Y-100447839D01*
X176548444Y-100518414D01*
X176644951Y-100707820D01*
X176769890Y-100879786D01*
X176920213Y-101030109D01*
X177092182Y-101155050D01*
X177100946Y-101159516D01*
X177151742Y-101207491D01*
X177168536Y-101275312D01*
X177145998Y-101341447D01*
X177100946Y-101380484D01*
X177092182Y-101384949D01*
X176920213Y-101509890D01*
X176769890Y-101660213D01*
X176644951Y-101832179D01*
X176548444Y-102021585D01*
X176482753Y-102223760D01*
X176449500Y-102433713D01*
X176449500Y-102646286D01*
X176480526Y-102842181D01*
X176482754Y-102856243D01*
X176521743Y-102976239D01*
X176548444Y-103058414D01*
X176644951Y-103247820D01*
X176769890Y-103419786D01*
X176920213Y-103570109D01*
X177092182Y-103695050D01*
X177100946Y-103699516D01*
X177151742Y-103747491D01*
X177168536Y-103815312D01*
X177145998Y-103881447D01*
X177100946Y-103920484D01*
X177092182Y-103924949D01*
X176920213Y-104049890D01*
X176769890Y-104200213D01*
X176644951Y-104372179D01*
X176548444Y-104561585D01*
X176482753Y-104763760D01*
X176463748Y-104883757D01*
X176449500Y-104973713D01*
X176449500Y-105186287D01*
X176482754Y-105396243D01*
X176541642Y-105577482D01*
X176548444Y-105598414D01*
X176644951Y-105787820D01*
X176769890Y-105959786D01*
X176920213Y-106110109D01*
X177092182Y-106235050D01*
X177100946Y-106239516D01*
X177151742Y-106287491D01*
X177168536Y-106355312D01*
X177145998Y-106421447D01*
X177100946Y-106460484D01*
X177092182Y-106464949D01*
X176920213Y-106589890D01*
X176769890Y-106740213D01*
X176644951Y-106912179D01*
X176548444Y-107101585D01*
X176482753Y-107303760D01*
X176463748Y-107423757D01*
X176449500Y-107513713D01*
X176449500Y-107726287D01*
X176482754Y-107936243D01*
X176521743Y-108056239D01*
X176548444Y-108138414D01*
X176644951Y-108327820D01*
X176769890Y-108499786D01*
X176920213Y-108650109D01*
X177092182Y-108775050D01*
X177100946Y-108779516D01*
X177151742Y-108827491D01*
X177168536Y-108895312D01*
X177145998Y-108961447D01*
X177100946Y-109000484D01*
X177092182Y-109004949D01*
X176920213Y-109129890D01*
X176769890Y-109280213D01*
X176644951Y-109452179D01*
X176548444Y-109641585D01*
X176482753Y-109843760D01*
X176468443Y-109934110D01*
X176449500Y-110053713D01*
X176449500Y-110266287D01*
X176482754Y-110476243D01*
X176521743Y-110596239D01*
X176548444Y-110678414D01*
X176644951Y-110867820D01*
X176769890Y-111039786D01*
X176920213Y-111190109D01*
X177092182Y-111315050D01*
X177100946Y-111319516D01*
X177151742Y-111367491D01*
X177168536Y-111435312D01*
X177145998Y-111501447D01*
X177100946Y-111540484D01*
X177092182Y-111544949D01*
X176920213Y-111669890D01*
X176769890Y-111820213D01*
X176644951Y-111992179D01*
X176548444Y-112181585D01*
X176482753Y-112383760D01*
X176463748Y-112503757D01*
X176449500Y-112593713D01*
X176449500Y-112806287D01*
X176482754Y-113016243D01*
X176521743Y-113136239D01*
X176548444Y-113218414D01*
X176644951Y-113407820D01*
X176769890Y-113579786D01*
X176920213Y-113730109D01*
X177092182Y-113855050D01*
X177100946Y-113859516D01*
X177151742Y-113907491D01*
X177168536Y-113975312D01*
X177145998Y-114041447D01*
X177100946Y-114080484D01*
X177092182Y-114084949D01*
X176920213Y-114209890D01*
X176769890Y-114360213D01*
X176644951Y-114532179D01*
X176548444Y-114721585D01*
X176482753Y-114923760D01*
X176472923Y-114985826D01*
X176449500Y-115133713D01*
X176449500Y-115346287D01*
X176482754Y-115556243D01*
X176521743Y-115676239D01*
X176548444Y-115758414D01*
X176644951Y-115947820D01*
X176769890Y-116119786D01*
X176920213Y-116270109D01*
X177092182Y-116395050D01*
X177100946Y-116399516D01*
X177151742Y-116447491D01*
X177168536Y-116515312D01*
X177145998Y-116581447D01*
X177100946Y-116620484D01*
X177092182Y-116624949D01*
X176920213Y-116749890D01*
X176769890Y-116900213D01*
X176644951Y-117072179D01*
X176548444Y-117261585D01*
X176482753Y-117463760D01*
X176463748Y-117583757D01*
X176449500Y-117673713D01*
X176449500Y-117886287D01*
X176482754Y-118096243D01*
X176521743Y-118216239D01*
X176548444Y-118298414D01*
X176644951Y-118487820D01*
X176769890Y-118659786D01*
X176920213Y-118810109D01*
X177092179Y-118935048D01*
X177092181Y-118935049D01*
X177092184Y-118935051D01*
X177101493Y-118939794D01*
X177152290Y-118987766D01*
X177169087Y-119055587D01*
X177146552Y-119121722D01*
X177101505Y-119160760D01*
X177092446Y-119165376D01*
X177092440Y-119165380D01*
X177038282Y-119204727D01*
X177038282Y-119204728D01*
X177670591Y-119837037D01*
X177607007Y-119854075D01*
X177492993Y-119919901D01*
X177399901Y-120012993D01*
X177334075Y-120127007D01*
X177317037Y-120190591D01*
X176684728Y-119558282D01*
X176684727Y-119558282D01*
X176645380Y-119612439D01*
X176548904Y-119801782D01*
X176483242Y-120003869D01*
X176483242Y-120003872D01*
X176450000Y-120213753D01*
X176450000Y-120426246D01*
X176483242Y-120636127D01*
X176483242Y-120636130D01*
X176548904Y-120838217D01*
X176645375Y-121027550D01*
X176684728Y-121081716D01*
X177317037Y-120449408D01*
X177334075Y-120512993D01*
X177399901Y-120627007D01*
X177492993Y-120720099D01*
X177607007Y-120785925D01*
X177670590Y-120802962D01*
X177038282Y-121435269D01*
X177038282Y-121435270D01*
X177092449Y-121474624D01*
X177281782Y-121571095D01*
X177483870Y-121636757D01*
X177693754Y-121670000D01*
X177906246Y-121670000D01*
X178116127Y-121636757D01*
X178116130Y-121636757D01*
X178318217Y-121571095D01*
X178507554Y-121474622D01*
X178561716Y-121435270D01*
X178561717Y-121435270D01*
X177929408Y-120802962D01*
X177992993Y-120785925D01*
X178107007Y-120720099D01*
X178200099Y-120627007D01*
X178265925Y-120512993D01*
X178282962Y-120449408D01*
X178915270Y-121081717D01*
X178915270Y-121081716D01*
X178954622Y-121027554D01*
X179051095Y-120838217D01*
X179116757Y-120636130D01*
X179116757Y-120636127D01*
X179150000Y-120426246D01*
X179150000Y-120213753D01*
X179116757Y-120003872D01*
X179116757Y-120003869D01*
X179051095Y-119801782D01*
X178954624Y-119612449D01*
X178915270Y-119558282D01*
X178915269Y-119558282D01*
X178282962Y-120190590D01*
X178265925Y-120127007D01*
X178200099Y-120012993D01*
X178107007Y-119919901D01*
X177992993Y-119854075D01*
X177929409Y-119837037D01*
X178561716Y-119204728D01*
X178507547Y-119165373D01*
X178507547Y-119165372D01*
X178498500Y-119160763D01*
X178447706Y-119112788D01*
X178430912Y-119044966D01*
X178453451Y-118978832D01*
X178498508Y-118939793D01*
X178507816Y-118935051D01*
X178631832Y-118844949D01*
X178679786Y-118810109D01*
X178679788Y-118810106D01*
X178679792Y-118810104D01*
X178830104Y-118659792D01*
X178830106Y-118659788D01*
X178830109Y-118659786D01*
X178955048Y-118487820D01*
X178955047Y-118487820D01*
X178955051Y-118487816D01*
X179051557Y-118298412D01*
X179117246Y-118096243D01*
X179150500Y-117886287D01*
X179150500Y-117673713D01*
X179117246Y-117463757D01*
X179051557Y-117261588D01*
X178955051Y-117072184D01*
X178955049Y-117072181D01*
X178955048Y-117072179D01*
X178830109Y-116900213D01*
X178679786Y-116749890D01*
X178507820Y-116624951D01*
X178507115Y-116624591D01*
X178499054Y-116620485D01*
X178448259Y-116572512D01*
X178431463Y-116504692D01*
X178453999Y-116438556D01*
X178499054Y-116399515D01*
X178507816Y-116395051D01*
X178632735Y-116304293D01*
X178679786Y-116270109D01*
X178679788Y-116270106D01*
X178679792Y-116270104D01*
X178830104Y-116119792D01*
X178830106Y-116119788D01*
X178830109Y-116119786D01*
X178955048Y-115947820D01*
X178955047Y-115947820D01*
X178955051Y-115947816D01*
X179051557Y-115758412D01*
X179117246Y-115556243D01*
X179150500Y-115346287D01*
X179150500Y-115133713D01*
X179117246Y-114923757D01*
X179051557Y-114721588D01*
X178955051Y-114532184D01*
X178955049Y-114532181D01*
X178955048Y-114532179D01*
X178830109Y-114360213D01*
X178679786Y-114209890D01*
X178507820Y-114084951D01*
X178507115Y-114084591D01*
X178499054Y-114080485D01*
X178448259Y-114032512D01*
X178431463Y-113964692D01*
X178453999Y-113898556D01*
X178499054Y-113859515D01*
X178507816Y-113855051D01*
X178545178Y-113827906D01*
X178679786Y-113730109D01*
X178679788Y-113730106D01*
X178679792Y-113730104D01*
X178830104Y-113579792D01*
X178830106Y-113579788D01*
X178830109Y-113579786D01*
X178955048Y-113407820D01*
X178955047Y-113407820D01*
X178955051Y-113407816D01*
X179051557Y-113218412D01*
X179117246Y-113016243D01*
X179150500Y-112806287D01*
X179150500Y-112593713D01*
X179117246Y-112383757D01*
X179051557Y-112181588D01*
X178955051Y-111992184D01*
X178955049Y-111992181D01*
X178955048Y-111992179D01*
X178830109Y-111820213D01*
X178679786Y-111669890D01*
X178507820Y-111544951D01*
X178507115Y-111544591D01*
X178499054Y-111540485D01*
X178448259Y-111492512D01*
X178431463Y-111424692D01*
X178453999Y-111358556D01*
X178499054Y-111319515D01*
X178507816Y-111315051D01*
X178529789Y-111299086D01*
X178679786Y-111190109D01*
X178679788Y-111190106D01*
X178679792Y-111190104D01*
X178830104Y-111039792D01*
X178830106Y-111039788D01*
X178830109Y-111039786D01*
X178955048Y-110867820D01*
X178955047Y-110867820D01*
X178955051Y-110867816D01*
X179051557Y-110678412D01*
X179117246Y-110476243D01*
X179150500Y-110266287D01*
X179150500Y-110053713D01*
X179117246Y-109843757D01*
X179051557Y-109641588D01*
X178955051Y-109452184D01*
X178955049Y-109452181D01*
X178955048Y-109452179D01*
X178830109Y-109280213D01*
X178679786Y-109129890D01*
X178507820Y-109004951D01*
X178507115Y-109004591D01*
X178499054Y-109000485D01*
X178448259Y-108952512D01*
X178431463Y-108884692D01*
X178453999Y-108818556D01*
X178499054Y-108779515D01*
X178507816Y-108775051D01*
X178529789Y-108759086D01*
X178679786Y-108650109D01*
X178679788Y-108650106D01*
X178679792Y-108650104D01*
X178830104Y-108499792D01*
X178830106Y-108499788D01*
X178830109Y-108499786D01*
X178955048Y-108327820D01*
X178955047Y-108327820D01*
X178955051Y-108327816D01*
X179051557Y-108138412D01*
X179117246Y-107936243D01*
X179150500Y-107726287D01*
X179150500Y-107513713D01*
X179117246Y-107303757D01*
X179051557Y-107101588D01*
X178955051Y-106912184D01*
X178955049Y-106912181D01*
X178955048Y-106912179D01*
X178830109Y-106740213D01*
X178679786Y-106589890D01*
X178507820Y-106464951D01*
X178507115Y-106464591D01*
X178499054Y-106460485D01*
X178448259Y-106412512D01*
X178431463Y-106344692D01*
X178453999Y-106278556D01*
X178499054Y-106239515D01*
X178507816Y-106235051D01*
X178529789Y-106219086D01*
X178679786Y-106110109D01*
X178679788Y-106110106D01*
X178679792Y-106110104D01*
X178830104Y-105959792D01*
X178830106Y-105959788D01*
X178830109Y-105959786D01*
X178955048Y-105787820D01*
X178955047Y-105787820D01*
X178955051Y-105787816D01*
X179051557Y-105598412D01*
X179117246Y-105396243D01*
X179150500Y-105186287D01*
X179150500Y-104973713D01*
X179117246Y-104763757D01*
X179051557Y-104561588D01*
X178955051Y-104372184D01*
X178955049Y-104372181D01*
X178955048Y-104372179D01*
X178830109Y-104200213D01*
X178679786Y-104049890D01*
X178507820Y-103924951D01*
X178507115Y-103924591D01*
X178499054Y-103920485D01*
X178448259Y-103872512D01*
X178431463Y-103804692D01*
X178453999Y-103738556D01*
X178499054Y-103699515D01*
X178507816Y-103695051D01*
X178603518Y-103625520D01*
X178679786Y-103570109D01*
X178679788Y-103570106D01*
X178679792Y-103570104D01*
X178830104Y-103419792D01*
X178830106Y-103419788D01*
X178830109Y-103419786D01*
X178955048Y-103247820D01*
X178955047Y-103247820D01*
X178955051Y-103247816D01*
X179051557Y-103058412D01*
X179117246Y-102856243D01*
X179150500Y-102646287D01*
X179150500Y-102433713D01*
X179117246Y-102223757D01*
X179051557Y-102021588D01*
X178955051Y-101832184D01*
X178955049Y-101832181D01*
X178955048Y-101832179D01*
X178830109Y-101660213D01*
X178679786Y-101509890D01*
X178507820Y-101384951D01*
X178507115Y-101384591D01*
X178499054Y-101380485D01*
X178448259Y-101332512D01*
X178431463Y-101264692D01*
X178453999Y-101198556D01*
X178499054Y-101159515D01*
X178507816Y-101155051D01*
X178529789Y-101139086D01*
X178679786Y-101030109D01*
X178679788Y-101030106D01*
X178679792Y-101030104D01*
X178830104Y-100879792D01*
X178830106Y-100879788D01*
X178830109Y-100879786D01*
X178955048Y-100707820D01*
X178955047Y-100707820D01*
X178955051Y-100707816D01*
X179051557Y-100518412D01*
X179117246Y-100316243D01*
X179150500Y-100106287D01*
X179150500Y-99893713D01*
X179117246Y-99683757D01*
X179051557Y-99481588D01*
X178955051Y-99292184D01*
X178955049Y-99292181D01*
X178955048Y-99292179D01*
X178830109Y-99120213D01*
X178679786Y-98969890D01*
X178507820Y-98844951D01*
X178507115Y-98844591D01*
X178499054Y-98840485D01*
X178448259Y-98792512D01*
X178431463Y-98724692D01*
X178453999Y-98658556D01*
X178499054Y-98619515D01*
X178507816Y-98615051D01*
X178529789Y-98599086D01*
X178679786Y-98490109D01*
X178679788Y-98490106D01*
X178679792Y-98490104D01*
X178830104Y-98339792D01*
X178830106Y-98339788D01*
X178830109Y-98339786D01*
X178955048Y-98167820D01*
X178955047Y-98167820D01*
X178955051Y-98167816D01*
X179051557Y-97978412D01*
X179070162Y-97921153D01*
X188199500Y-97921153D01*
X188199500Y-98078846D01*
X188230261Y-98233489D01*
X188230264Y-98233501D01*
X188290602Y-98379172D01*
X188290609Y-98379185D01*
X188378210Y-98510288D01*
X188378213Y-98510292D01*
X188489707Y-98621786D01*
X188489711Y-98621789D01*
X188620814Y-98709390D01*
X188620827Y-98709397D01*
X188736460Y-98757293D01*
X188766503Y-98769737D01*
X188881000Y-98792512D01*
X188921153Y-98800499D01*
X188921156Y-98800500D01*
X188921158Y-98800500D01*
X189078844Y-98800500D01*
X189078845Y-98800499D01*
X189233497Y-98769737D01*
X189379179Y-98709394D01*
X189510289Y-98621789D01*
X189621789Y-98510289D01*
X189709394Y-98379179D01*
X189769737Y-98233497D01*
X189791858Y-98122282D01*
X189824240Y-98060375D01*
X189825732Y-98058856D01*
X190817772Y-97066819D01*
X190879095Y-97033334D01*
X190905453Y-97030500D01*
X201787873Y-97030500D01*
X201854912Y-97050185D01*
X201900667Y-97102989D01*
X201910611Y-97172147D01*
X201905805Y-97192813D01*
X201893638Y-97230261D01*
X201882753Y-97263760D01*
X201849500Y-97473713D01*
X201849500Y-97686287D01*
X201882754Y-97896243D01*
X201944213Y-98085394D01*
X201948444Y-98098414D01*
X202044951Y-98287820D01*
X202169890Y-98459786D01*
X202320213Y-98610109D01*
X202492182Y-98735050D01*
X202500946Y-98739516D01*
X202551742Y-98787491D01*
X202568536Y-98855312D01*
X202545998Y-98921447D01*
X202500946Y-98960484D01*
X202492182Y-98964949D01*
X202320213Y-99089890D01*
X202169890Y-99240213D01*
X202044951Y-99412179D01*
X201948444Y-99601585D01*
X201882753Y-99803760D01*
X201849500Y-100013713D01*
X201849500Y-100226286D01*
X201865903Y-100329854D01*
X201882754Y-100436243D01*
X201945709Y-100629999D01*
X201948444Y-100638414D01*
X202044951Y-100827820D01*
X202169890Y-100999786D01*
X202320213Y-101150109D01*
X202492182Y-101275050D01*
X202500946Y-101279516D01*
X202551742Y-101327491D01*
X202568536Y-101395312D01*
X202545998Y-101461447D01*
X202500946Y-101500484D01*
X202492182Y-101504949D01*
X202320213Y-101629890D01*
X202169890Y-101780213D01*
X202044951Y-101952179D01*
X201948444Y-102141585D01*
X201882753Y-102343760D01*
X201859637Y-102489711D01*
X201849500Y-102553713D01*
X201849500Y-102766287D01*
X201849534Y-102766503D01*
X201874028Y-102921153D01*
X201882754Y-102976243D01*
X201934223Y-103134649D01*
X201948444Y-103178414D01*
X202044951Y-103367820D01*
X202169890Y-103539786D01*
X202320213Y-103690109D01*
X202492182Y-103815050D01*
X202500946Y-103819516D01*
X202551742Y-103867491D01*
X202568536Y-103935312D01*
X202545998Y-104001447D01*
X202500946Y-104040484D01*
X202492182Y-104044949D01*
X202320213Y-104169890D01*
X202169890Y-104320213D01*
X202044951Y-104492179D01*
X201948444Y-104681585D01*
X201882753Y-104883760D01*
X201849500Y-105093713D01*
X201849500Y-105306286D01*
X201881810Y-105510288D01*
X201882754Y-105516243D01*
X201946468Y-105712335D01*
X201948444Y-105718414D01*
X202044951Y-105907820D01*
X202169890Y-106079786D01*
X202320213Y-106230109D01*
X202492182Y-106355050D01*
X202500946Y-106359516D01*
X202551742Y-106407491D01*
X202568536Y-106475312D01*
X202545998Y-106541447D01*
X202500946Y-106580484D01*
X202492182Y-106584949D01*
X202320213Y-106709890D01*
X202169890Y-106860213D01*
X202044951Y-107032179D01*
X201948444Y-107221585D01*
X201882753Y-107423760D01*
X201868506Y-107513713D01*
X201849500Y-107633713D01*
X201849500Y-107846287D01*
X201882754Y-108056243D01*
X201909452Y-108138412D01*
X201948444Y-108258414D01*
X202044951Y-108447820D01*
X202169890Y-108619786D01*
X202320213Y-108770109D01*
X202492182Y-108895050D01*
X202500946Y-108899516D01*
X202551742Y-108947491D01*
X202568536Y-109015312D01*
X202545998Y-109081447D01*
X202500946Y-109120484D01*
X202492182Y-109124949D01*
X202320213Y-109249890D01*
X202169890Y-109400213D01*
X202044951Y-109572179D01*
X201948444Y-109761585D01*
X201882753Y-109963760D01*
X201868506Y-110053713D01*
X201849500Y-110173713D01*
X201849500Y-110386287D01*
X201882754Y-110596243D01*
X201909452Y-110678412D01*
X201948444Y-110798414D01*
X202044951Y-110987820D01*
X202169890Y-111159786D01*
X202320213Y-111310109D01*
X202492182Y-111435050D01*
X202500946Y-111439516D01*
X202551742Y-111487491D01*
X202568536Y-111555312D01*
X202545998Y-111621447D01*
X202500946Y-111660484D01*
X202492182Y-111664949D01*
X202320213Y-111789890D01*
X202169890Y-111940213D01*
X202044951Y-112112179D01*
X201948444Y-112301585D01*
X201882753Y-112503760D01*
X201868506Y-112593713D01*
X201849500Y-112713713D01*
X201849500Y-112926287D01*
X201882754Y-113136243D01*
X201909452Y-113218412D01*
X201948444Y-113338414D01*
X202044951Y-113527820D01*
X202169890Y-113699786D01*
X202320213Y-113850109D01*
X202492182Y-113975050D01*
X202500946Y-113979516D01*
X202551742Y-114027491D01*
X202568536Y-114095312D01*
X202545998Y-114161447D01*
X202500946Y-114200484D01*
X202492182Y-114204949D01*
X202320213Y-114329890D01*
X202169890Y-114480213D01*
X202044951Y-114652179D01*
X201948444Y-114841585D01*
X201882753Y-115043760D01*
X201871788Y-115112993D01*
X201849500Y-115253713D01*
X201849500Y-115466287D01*
X201882754Y-115676243D01*
X201948107Y-115877379D01*
X201948444Y-115878414D01*
X202044951Y-116067820D01*
X202169890Y-116239786D01*
X202320213Y-116390109D01*
X202492182Y-116515050D01*
X202500946Y-116519516D01*
X202551742Y-116567491D01*
X202568536Y-116635312D01*
X202545998Y-116701447D01*
X202500946Y-116740484D01*
X202492182Y-116744949D01*
X202320213Y-116869890D01*
X202169890Y-117020213D01*
X202044951Y-117192179D01*
X201948444Y-117381585D01*
X201882753Y-117583760D01*
X201868506Y-117673713D01*
X201849500Y-117793713D01*
X201849500Y-118006287D01*
X201882754Y-118216243D01*
X201909452Y-118298412D01*
X201948444Y-118418414D01*
X202044951Y-118607820D01*
X202169890Y-118779786D01*
X202283430Y-118893326D01*
X202316915Y-118954649D01*
X202311931Y-119024341D01*
X202270059Y-119080274D01*
X202239083Y-119097189D01*
X202107669Y-119146203D01*
X202107664Y-119146206D01*
X201992455Y-119232452D01*
X201992452Y-119232455D01*
X201906206Y-119347664D01*
X201906202Y-119347671D01*
X201855908Y-119482517D01*
X201849501Y-119542116D01*
X201849501Y-119542123D01*
X201849500Y-119542135D01*
X201849500Y-121337870D01*
X201849501Y-121337876D01*
X201855908Y-121397483D01*
X201906202Y-121532328D01*
X201906206Y-121532335D01*
X201992452Y-121647544D01*
X201992455Y-121647547D01*
X202107664Y-121733793D01*
X202107671Y-121733797D01*
X202242517Y-121784091D01*
X202242516Y-121784091D01*
X202249444Y-121784835D01*
X202302127Y-121790500D01*
X204097872Y-121790499D01*
X204157483Y-121784091D01*
X204292331Y-121733796D01*
X204407546Y-121647546D01*
X204493796Y-121532331D01*
X204544091Y-121397483D01*
X204550500Y-121337873D01*
X204550499Y-119542128D01*
X204544091Y-119482517D01*
X204543743Y-119481585D01*
X204493797Y-119347671D01*
X204493793Y-119347664D01*
X204407547Y-119232455D01*
X204407544Y-119232452D01*
X204292335Y-119146206D01*
X204292328Y-119146202D01*
X204160917Y-119097189D01*
X204104983Y-119055318D01*
X204080566Y-118989853D01*
X204095418Y-118921580D01*
X204116563Y-118893332D01*
X204230104Y-118779792D01*
X204355051Y-118607816D01*
X204451557Y-118418412D01*
X204517246Y-118216243D01*
X204550500Y-118006287D01*
X204550500Y-117793713D01*
X204517246Y-117583757D01*
X204451557Y-117381588D01*
X204355051Y-117192184D01*
X204355049Y-117192181D01*
X204355048Y-117192179D01*
X204230109Y-117020213D01*
X204079786Y-116869890D01*
X203907820Y-116744951D01*
X203907115Y-116744591D01*
X203899054Y-116740485D01*
X203848259Y-116692512D01*
X203831463Y-116624692D01*
X203853999Y-116558556D01*
X203899054Y-116519515D01*
X203907816Y-116515051D01*
X204000805Y-116447491D01*
X204079786Y-116390109D01*
X204079788Y-116390106D01*
X204079792Y-116390104D01*
X204230104Y-116239792D01*
X204230106Y-116239788D01*
X204230109Y-116239786D01*
X204355048Y-116067820D01*
X204355047Y-116067820D01*
X204355051Y-116067816D01*
X204451557Y-115878412D01*
X204517246Y-115676243D01*
X204550500Y-115466287D01*
X204550500Y-115253713D01*
X204517246Y-115043757D01*
X204451557Y-114841588D01*
X204355051Y-114652184D01*
X204355049Y-114652181D01*
X204355048Y-114652179D01*
X204230109Y-114480213D01*
X204079786Y-114329890D01*
X203907820Y-114204951D01*
X203907115Y-114204591D01*
X203899054Y-114200485D01*
X203848259Y-114152512D01*
X203831463Y-114084692D01*
X203853999Y-114018556D01*
X203899054Y-113979515D01*
X203907816Y-113975051D01*
X204000805Y-113907491D01*
X204079786Y-113850109D01*
X204079788Y-113850106D01*
X204079792Y-113850104D01*
X204230104Y-113699792D01*
X204230106Y-113699788D01*
X204230109Y-113699786D01*
X204355048Y-113527820D01*
X204355047Y-113527820D01*
X204355051Y-113527816D01*
X204451557Y-113338412D01*
X204517246Y-113136243D01*
X204550500Y-112926287D01*
X204550500Y-112713713D01*
X204517246Y-112503757D01*
X204451557Y-112301588D01*
X204355051Y-112112184D01*
X204355049Y-112112181D01*
X204355048Y-112112179D01*
X204230109Y-111940213D01*
X204079786Y-111789890D01*
X203907820Y-111664951D01*
X203907115Y-111664591D01*
X203899054Y-111660485D01*
X203848259Y-111612512D01*
X203831463Y-111544692D01*
X203853999Y-111478556D01*
X203899054Y-111439515D01*
X203907816Y-111435051D01*
X204000805Y-111367491D01*
X204079786Y-111310109D01*
X204079788Y-111310106D01*
X204079792Y-111310104D01*
X204230104Y-111159792D01*
X204230106Y-111159788D01*
X204230109Y-111159786D01*
X204355048Y-110987820D01*
X204355047Y-110987820D01*
X204355051Y-110987816D01*
X204451557Y-110798412D01*
X204517246Y-110596243D01*
X204550500Y-110386287D01*
X204550500Y-110173713D01*
X204517246Y-109963757D01*
X204451557Y-109761588D01*
X204355051Y-109572184D01*
X204355049Y-109572181D01*
X204355048Y-109572179D01*
X204230109Y-109400213D01*
X204079786Y-109249890D01*
X203907820Y-109124951D01*
X203907115Y-109124591D01*
X203899054Y-109120485D01*
X203848259Y-109072512D01*
X203831463Y-109004692D01*
X203853999Y-108938556D01*
X203899054Y-108899515D01*
X203907816Y-108895051D01*
X204000805Y-108827491D01*
X204079786Y-108770109D01*
X204079788Y-108770106D01*
X204079792Y-108770104D01*
X204230104Y-108619792D01*
X204230106Y-108619788D01*
X204230109Y-108619786D01*
X204355048Y-108447820D01*
X204355047Y-108447820D01*
X204355051Y-108447816D01*
X204451557Y-108258412D01*
X204517246Y-108056243D01*
X204550500Y-107846287D01*
X204550500Y-107633713D01*
X204517246Y-107423757D01*
X204451557Y-107221588D01*
X204355051Y-107032184D01*
X204355049Y-107032181D01*
X204355048Y-107032179D01*
X204230109Y-106860213D01*
X204079786Y-106709890D01*
X203907820Y-106584951D01*
X203907115Y-106584591D01*
X203899054Y-106580485D01*
X203848259Y-106532512D01*
X203831463Y-106464692D01*
X203853999Y-106398556D01*
X203899054Y-106359515D01*
X203907816Y-106355051D01*
X204000805Y-106287491D01*
X204079786Y-106230109D01*
X204079788Y-106230106D01*
X204079792Y-106230104D01*
X204230104Y-106079792D01*
X204230106Y-106079788D01*
X204230109Y-106079786D01*
X204355048Y-105907820D01*
X204355047Y-105907820D01*
X204355051Y-105907816D01*
X204451557Y-105718412D01*
X204517246Y-105516243D01*
X204550500Y-105306287D01*
X204550500Y-105093713D01*
X204517246Y-104883757D01*
X204451557Y-104681588D01*
X204355051Y-104492184D01*
X204355049Y-104492181D01*
X204355048Y-104492179D01*
X204230109Y-104320213D01*
X204079786Y-104169890D01*
X203907820Y-104044951D01*
X203907115Y-104044591D01*
X203899054Y-104040485D01*
X203848259Y-103992512D01*
X203831463Y-103924692D01*
X203853999Y-103858556D01*
X203899054Y-103819515D01*
X203907816Y-103815051D01*
X203940153Y-103791557D01*
X204079786Y-103690109D01*
X204079788Y-103690106D01*
X204079792Y-103690104D01*
X204230104Y-103539792D01*
X204230106Y-103539788D01*
X204230109Y-103539786D01*
X204355048Y-103367820D01*
X204355047Y-103367820D01*
X204355051Y-103367816D01*
X204451557Y-103178412D01*
X204517246Y-102976243D01*
X204550500Y-102766287D01*
X204550500Y-102553713D01*
X204517246Y-102343757D01*
X204451557Y-102141588D01*
X204355051Y-101952184D01*
X204355049Y-101952181D01*
X204355048Y-101952179D01*
X204230109Y-101780213D01*
X204079786Y-101629890D01*
X203907820Y-101504951D01*
X203907115Y-101504591D01*
X203899054Y-101500485D01*
X203848259Y-101452512D01*
X203831463Y-101384692D01*
X203853999Y-101318556D01*
X203899054Y-101279515D01*
X203907816Y-101275051D01*
X204000805Y-101207491D01*
X204079786Y-101150109D01*
X204079788Y-101150106D01*
X204079792Y-101150104D01*
X204230104Y-100999792D01*
X204230106Y-100999788D01*
X204230109Y-100999786D01*
X204355048Y-100827820D01*
X204355047Y-100827820D01*
X204355051Y-100827816D01*
X204451557Y-100638412D01*
X204517246Y-100436243D01*
X204550500Y-100226287D01*
X204550500Y-100013713D01*
X204517246Y-99803757D01*
X204451557Y-99601588D01*
X204355051Y-99412184D01*
X204355049Y-99412181D01*
X204355048Y-99412179D01*
X204230109Y-99240213D01*
X204079786Y-99089890D01*
X203907820Y-98964951D01*
X203907115Y-98964591D01*
X203899054Y-98960485D01*
X203848259Y-98912512D01*
X203831463Y-98844692D01*
X203853999Y-98778556D01*
X203899054Y-98739515D01*
X203907816Y-98735051D01*
X204000805Y-98667491D01*
X204079786Y-98610109D01*
X204079788Y-98610106D01*
X204079792Y-98610104D01*
X204230104Y-98459792D01*
X204230106Y-98459788D01*
X204230109Y-98459786D01*
X204355048Y-98287820D01*
X204355047Y-98287820D01*
X204355051Y-98287816D01*
X204451557Y-98098412D01*
X204517246Y-97896243D01*
X204550500Y-97686287D01*
X204550500Y-97473713D01*
X204517246Y-97263757D01*
X204494195Y-97192816D01*
X204492201Y-97122977D01*
X204528281Y-97063144D01*
X204590982Y-97032316D01*
X204612127Y-97030500D01*
X205094548Y-97030500D01*
X205161587Y-97050185D01*
X205182229Y-97066819D01*
X206174205Y-98058796D01*
X206207690Y-98120119D01*
X206208141Y-98122286D01*
X206230261Y-98233489D01*
X206230264Y-98233501D01*
X206290602Y-98379172D01*
X206290609Y-98379185D01*
X206378210Y-98510288D01*
X206378213Y-98510292D01*
X206489707Y-98621786D01*
X206489711Y-98621789D01*
X206620814Y-98709390D01*
X206620827Y-98709397D01*
X206736460Y-98757293D01*
X206766503Y-98769737D01*
X206881000Y-98792512D01*
X206921153Y-98800499D01*
X206921156Y-98800500D01*
X206921158Y-98800500D01*
X207078844Y-98800500D01*
X207078845Y-98800499D01*
X207233497Y-98769737D01*
X207379179Y-98709394D01*
X207510289Y-98621789D01*
X207621789Y-98510289D01*
X207709394Y-98379179D01*
X207769737Y-98233497D01*
X207800500Y-98078842D01*
X207800500Y-97921158D01*
X207800500Y-97921155D01*
X207800499Y-97921153D01*
X207771674Y-97776243D01*
X207769737Y-97766503D01*
X207745318Y-97707550D01*
X207709397Y-97620827D01*
X207709390Y-97620814D01*
X207621789Y-97489711D01*
X207621786Y-97489707D01*
X207510292Y-97378213D01*
X207510288Y-97378210D01*
X207473626Y-97353713D01*
X246649500Y-97353713D01*
X246649500Y-97566286D01*
X246681210Y-97766498D01*
X246682754Y-97776243D01*
X246729838Y-97921153D01*
X246748444Y-97978414D01*
X246844951Y-98167820D01*
X246969890Y-98339786D01*
X247120213Y-98490109D01*
X247292182Y-98615050D01*
X247300946Y-98619516D01*
X247351742Y-98667491D01*
X247368536Y-98735312D01*
X247345998Y-98801447D01*
X247300946Y-98840484D01*
X247292182Y-98844949D01*
X247120213Y-98969890D01*
X246969890Y-99120213D01*
X246844951Y-99292179D01*
X246748444Y-99481585D01*
X246682753Y-99683760D01*
X246649500Y-99893713D01*
X246649500Y-100106286D01*
X246671916Y-100247819D01*
X246682754Y-100316243D01*
X246725512Y-100447839D01*
X246748444Y-100518414D01*
X246844951Y-100707820D01*
X246969890Y-100879786D01*
X247120213Y-101030109D01*
X247292179Y-101155048D01*
X247292181Y-101155049D01*
X247292184Y-101155051D01*
X247481588Y-101251557D01*
X247683757Y-101317246D01*
X247893713Y-101350500D01*
X247893714Y-101350500D01*
X248106286Y-101350500D01*
X248106287Y-101350500D01*
X248316243Y-101317246D01*
X248518412Y-101251557D01*
X248707816Y-101155051D01*
X248729789Y-101139086D01*
X248879786Y-101030109D01*
X248879788Y-101030106D01*
X248879792Y-101030104D01*
X249030104Y-100879792D01*
X249030106Y-100879788D01*
X249030109Y-100879786D01*
X249155048Y-100707820D01*
X249155047Y-100707820D01*
X249155051Y-100707816D01*
X249251557Y-100518412D01*
X249317246Y-100316243D01*
X249350500Y-100106287D01*
X249350500Y-99893713D01*
X249317246Y-99683757D01*
X249251557Y-99481588D01*
X249155051Y-99292184D01*
X249155049Y-99292181D01*
X249155048Y-99292179D01*
X249030109Y-99120213D01*
X248879786Y-98969890D01*
X248707820Y-98844951D01*
X248707115Y-98844591D01*
X248699054Y-98840485D01*
X248648259Y-98792512D01*
X248631463Y-98724692D01*
X248653999Y-98658556D01*
X248699054Y-98619515D01*
X248707816Y-98615051D01*
X248729789Y-98599086D01*
X248879786Y-98490109D01*
X248879788Y-98490106D01*
X248879792Y-98490104D01*
X249030104Y-98339792D01*
X249030106Y-98339788D01*
X249030109Y-98339786D01*
X249155048Y-98167820D01*
X249155047Y-98167820D01*
X249155051Y-98167816D01*
X249251557Y-97978412D01*
X249317246Y-97776243D01*
X249350500Y-97566287D01*
X249350500Y-97353713D01*
X249317246Y-97143757D01*
X249251557Y-96941588D01*
X249155051Y-96752184D01*
X249155049Y-96752181D01*
X249155048Y-96752179D01*
X249030109Y-96580213D01*
X248916181Y-96466285D01*
X248882696Y-96404962D01*
X248887680Y-96335270D01*
X248929552Y-96279337D01*
X248960529Y-96262422D01*
X249092086Y-96213354D01*
X249092093Y-96213350D01*
X249207187Y-96127190D01*
X249207190Y-96127187D01*
X249293350Y-96012093D01*
X249293354Y-96012086D01*
X249343596Y-95877379D01*
X249343598Y-95877372D01*
X249349999Y-95817844D01*
X249350000Y-95817827D01*
X249350000Y-95170000D01*
X248433012Y-95170000D01*
X248465925Y-95112993D01*
X248500000Y-94985826D01*
X248500000Y-94854174D01*
X248465925Y-94727007D01*
X248433012Y-94670000D01*
X249350000Y-94670000D01*
X249350000Y-94022172D01*
X249349999Y-94022155D01*
X249343598Y-93962627D01*
X249343596Y-93962620D01*
X249293354Y-93827913D01*
X249293350Y-93827906D01*
X249207190Y-93712812D01*
X249207187Y-93712809D01*
X249092093Y-93626649D01*
X249092086Y-93626645D01*
X248957379Y-93576403D01*
X248957372Y-93576401D01*
X248897844Y-93570000D01*
X248250000Y-93570000D01*
X248250000Y-94486988D01*
X248192993Y-94454075D01*
X248065826Y-94420000D01*
X247934174Y-94420000D01*
X247807007Y-94454075D01*
X247750000Y-94486988D01*
X247750000Y-93570000D01*
X247102155Y-93570000D01*
X247042627Y-93576401D01*
X247042620Y-93576403D01*
X246907913Y-93626645D01*
X246907906Y-93626649D01*
X246792812Y-93712809D01*
X246792809Y-93712812D01*
X246706649Y-93827906D01*
X246706645Y-93827913D01*
X246656403Y-93962620D01*
X246656401Y-93962627D01*
X246650000Y-94022155D01*
X246650000Y-94670000D01*
X247566988Y-94670000D01*
X247534075Y-94727007D01*
X247500000Y-94854174D01*
X247500000Y-94985826D01*
X247534075Y-95112993D01*
X247566988Y-95170000D01*
X246650000Y-95170000D01*
X246650000Y-95817844D01*
X246656401Y-95877372D01*
X246656403Y-95877379D01*
X246706645Y-96012086D01*
X246706649Y-96012093D01*
X246792809Y-96127187D01*
X246792812Y-96127190D01*
X246907906Y-96213350D01*
X246907913Y-96213354D01*
X247039470Y-96262422D01*
X247095404Y-96304293D01*
X247119821Y-96369758D01*
X247104969Y-96438031D01*
X247083819Y-96466285D01*
X246969889Y-96580215D01*
X246844951Y-96752179D01*
X246748444Y-96941585D01*
X246682753Y-97143760D01*
X246649500Y-97353713D01*
X207473626Y-97353713D01*
X207379185Y-97290609D01*
X207379172Y-97290602D01*
X207233501Y-97230264D01*
X207233489Y-97230261D01*
X207122286Y-97208141D01*
X207060375Y-97175756D01*
X207058796Y-97174205D01*
X205900822Y-96016232D01*
X205890859Y-96006269D01*
X205890858Y-96006267D01*
X205803733Y-95919142D01*
X205752509Y-95884915D01*
X205701286Y-95850688D01*
X205604262Y-95810500D01*
X205587452Y-95803537D01*
X205527029Y-95791518D01*
X205523550Y-95790826D01*
X205466610Y-95779500D01*
X205466607Y-95779500D01*
X205466606Y-95779500D01*
X204541257Y-95779500D01*
X204474218Y-95759815D01*
X204428463Y-95707011D01*
X204418519Y-95637853D01*
X204430772Y-95599205D01*
X204431538Y-95597699D01*
X204451557Y-95558412D01*
X204517246Y-95356243D01*
X204550500Y-95146287D01*
X204550500Y-94933713D01*
X204517246Y-94723757D01*
X204451557Y-94521588D01*
X204355051Y-94332184D01*
X204355049Y-94332181D01*
X204355048Y-94332179D01*
X204230109Y-94160213D01*
X204079786Y-94009890D01*
X203907820Y-93884951D01*
X203907115Y-93884591D01*
X203899054Y-93880485D01*
X203848259Y-93832512D01*
X203831463Y-93764692D01*
X203853999Y-93698556D01*
X203899054Y-93659515D01*
X203907816Y-93655051D01*
X203970051Y-93609835D01*
X204079786Y-93530109D01*
X204079788Y-93530106D01*
X204079792Y-93530104D01*
X204230104Y-93379792D01*
X204230106Y-93379788D01*
X204230109Y-93379786D01*
X204355048Y-93207820D01*
X204355047Y-93207820D01*
X204355051Y-93207816D01*
X204451557Y-93018412D01*
X204517246Y-92816243D01*
X204550500Y-92606287D01*
X204550500Y-92393713D01*
X204517246Y-92183757D01*
X204451557Y-91981588D01*
X204355051Y-91792184D01*
X204355049Y-91792181D01*
X204355048Y-91792179D01*
X204230109Y-91620213D01*
X204079786Y-91469890D01*
X203907820Y-91344951D01*
X203907115Y-91344591D01*
X203899054Y-91340485D01*
X203848259Y-91292512D01*
X203831463Y-91224692D01*
X203853999Y-91158556D01*
X203899054Y-91119515D01*
X203907816Y-91115051D01*
X204000805Y-91047491D01*
X204079786Y-90990109D01*
X204079788Y-90990106D01*
X204079792Y-90990104D01*
X204230104Y-90839792D01*
X204230106Y-90839788D01*
X204230109Y-90839786D01*
X204355048Y-90667820D01*
X204355047Y-90667820D01*
X204355051Y-90667816D01*
X204451557Y-90478412D01*
X204517246Y-90276243D01*
X204550500Y-90066287D01*
X204550500Y-89853713D01*
X204517246Y-89643757D01*
X204451557Y-89441588D01*
X204355051Y-89252184D01*
X204355049Y-89252181D01*
X204355048Y-89252179D01*
X204230109Y-89080213D01*
X204079786Y-88929890D01*
X203907817Y-88804949D01*
X203898504Y-88800204D01*
X203847707Y-88752230D01*
X203830912Y-88684409D01*
X203853449Y-88618274D01*
X203898507Y-88579232D01*
X203907555Y-88574622D01*
X203961716Y-88535270D01*
X203961717Y-88535270D01*
X203329408Y-87902962D01*
X203392993Y-87885925D01*
X203507007Y-87820099D01*
X203600099Y-87727007D01*
X203665925Y-87612993D01*
X203682962Y-87549408D01*
X204315270Y-88181717D01*
X204315270Y-88181716D01*
X204354622Y-88127554D01*
X204451095Y-87938217D01*
X204516757Y-87736130D01*
X204516757Y-87736127D01*
X204550000Y-87526246D01*
X204550000Y-87313753D01*
X204516757Y-87103872D01*
X204516757Y-87103869D01*
X204451095Y-86901782D01*
X204354624Y-86712449D01*
X204315270Y-86658282D01*
X204315269Y-86658282D01*
X203682962Y-87290590D01*
X203665925Y-87227007D01*
X203600099Y-87112993D01*
X203507007Y-87019901D01*
X203392993Y-86954075D01*
X203329409Y-86937037D01*
X203961716Y-86304728D01*
X203907547Y-86265373D01*
X203907547Y-86265372D01*
X203898500Y-86260763D01*
X203847706Y-86212788D01*
X203830912Y-86144966D01*
X203853451Y-86078832D01*
X203898508Y-86039793D01*
X203907816Y-86035051D01*
X204013103Y-85958556D01*
X204079786Y-85910109D01*
X204079788Y-85910106D01*
X204079792Y-85910104D01*
X204230104Y-85759792D01*
X204230106Y-85759788D01*
X204230109Y-85759786D01*
X204355048Y-85587820D01*
X204355047Y-85587820D01*
X204355051Y-85587816D01*
X204451557Y-85398412D01*
X204517246Y-85196243D01*
X204550500Y-84986287D01*
X204550500Y-84773713D01*
X204517246Y-84563757D01*
X204451557Y-84361588D01*
X204355051Y-84172184D01*
X204355049Y-84172181D01*
X204355048Y-84172179D01*
X204230109Y-84000213D01*
X204079786Y-83849890D01*
X203907820Y-83724951D01*
X203907115Y-83724591D01*
X203899054Y-83720485D01*
X203848259Y-83672512D01*
X203831463Y-83604692D01*
X203853999Y-83538556D01*
X203899054Y-83499515D01*
X203907816Y-83495051D01*
X204000805Y-83427491D01*
X204079786Y-83370109D01*
X204079788Y-83370106D01*
X204079792Y-83370104D01*
X204230104Y-83219792D01*
X204230106Y-83219788D01*
X204230109Y-83219786D01*
X204355048Y-83047820D01*
X204355047Y-83047820D01*
X204355051Y-83047816D01*
X204451557Y-82858412D01*
X204517246Y-82656243D01*
X204550500Y-82446287D01*
X204550500Y-82233713D01*
X204517246Y-82023757D01*
X204451557Y-81821588D01*
X204355051Y-81632184D01*
X204355049Y-81632181D01*
X204355048Y-81632179D01*
X204230109Y-81460213D01*
X204079786Y-81309890D01*
X203907820Y-81184951D01*
X203907115Y-81184591D01*
X203899054Y-81180485D01*
X203848259Y-81132512D01*
X203831463Y-81064692D01*
X203853999Y-80998556D01*
X203899054Y-80959515D01*
X203907816Y-80955051D01*
X204011402Y-80879792D01*
X204079786Y-80830109D01*
X204079788Y-80830106D01*
X204079792Y-80830104D01*
X204230104Y-80679792D01*
X204230106Y-80679788D01*
X204230109Y-80679786D01*
X204355048Y-80507820D01*
X204355047Y-80507820D01*
X204355051Y-80507816D01*
X204451557Y-80318412D01*
X204517246Y-80116243D01*
X204550500Y-79906287D01*
X204550500Y-79693713D01*
X204517246Y-79483757D01*
X204451557Y-79281588D01*
X204355051Y-79092184D01*
X204355049Y-79092181D01*
X204355048Y-79092179D01*
X204230109Y-78920213D01*
X204079786Y-78769890D01*
X203907820Y-78644951D01*
X203907115Y-78644591D01*
X203899054Y-78640485D01*
X203848259Y-78592512D01*
X203831463Y-78524692D01*
X203853999Y-78458556D01*
X203899054Y-78419515D01*
X203907816Y-78415051D01*
X204011402Y-78339792D01*
X204079786Y-78290109D01*
X204079788Y-78290106D01*
X204079792Y-78290104D01*
X204230104Y-78139792D01*
X204230106Y-78139788D01*
X204230109Y-78139786D01*
X204355048Y-77967820D01*
X204355047Y-77967820D01*
X204355051Y-77967816D01*
X204451557Y-77778412D01*
X204517246Y-77576243D01*
X204550500Y-77366287D01*
X204550500Y-77153713D01*
X204517246Y-76943757D01*
X204451557Y-76741588D01*
X204355051Y-76552184D01*
X204355049Y-76552181D01*
X204355048Y-76552179D01*
X204230109Y-76380213D01*
X204079786Y-76229890D01*
X203907820Y-76104951D01*
X203907115Y-76104591D01*
X203899054Y-76100485D01*
X203848259Y-76052512D01*
X203831463Y-75984692D01*
X203853999Y-75918556D01*
X203899054Y-75879515D01*
X203907816Y-75875051D01*
X203929789Y-75859086D01*
X204079786Y-75750109D01*
X204079788Y-75750106D01*
X204079792Y-75750104D01*
X204230104Y-75599792D01*
X204230106Y-75599788D01*
X204230109Y-75599786D01*
X204355048Y-75427820D01*
X204355047Y-75427820D01*
X204355051Y-75427816D01*
X204451557Y-75238412D01*
X204517246Y-75036243D01*
X204550500Y-74826287D01*
X204550500Y-74613713D01*
X204517246Y-74403757D01*
X204451557Y-74201588D01*
X204355051Y-74012184D01*
X204355049Y-74012181D01*
X204355048Y-74012179D01*
X204230109Y-73840213D01*
X204079786Y-73689890D01*
X203907820Y-73564951D01*
X203718414Y-73468444D01*
X203718413Y-73468443D01*
X203718412Y-73468443D01*
X203516243Y-73402754D01*
X203516241Y-73402753D01*
X203516240Y-73402753D01*
X203354957Y-73377208D01*
X203306287Y-73369500D01*
X203093713Y-73369500D01*
X203045042Y-73377208D01*
X202883760Y-73402753D01*
X202681585Y-73468444D01*
X202492179Y-73564951D01*
X202320213Y-73689890D01*
X202169890Y-73840213D01*
X202044951Y-74012179D01*
X201948444Y-74201585D01*
X201882753Y-74403760D01*
X201862250Y-74533211D01*
X201849500Y-74613713D01*
X201849500Y-74826287D01*
X201850369Y-74831772D01*
X201874768Y-74985826D01*
X201882754Y-75036243D01*
X201944737Y-75227007D01*
X201948444Y-75238414D01*
X202044951Y-75427820D01*
X202169890Y-75599786D01*
X202320213Y-75750109D01*
X202492182Y-75875050D01*
X202500946Y-75879516D01*
X202551742Y-75927491D01*
X202568536Y-75995312D01*
X202545998Y-76061447D01*
X202500946Y-76100484D01*
X202492182Y-76104949D01*
X202320213Y-76229890D01*
X202169890Y-76380213D01*
X202044951Y-76552179D01*
X201948444Y-76741585D01*
X201882753Y-76943760D01*
X201868506Y-77033713D01*
X201849500Y-77153713D01*
X201849500Y-77366287D01*
X201882754Y-77576243D01*
X201947738Y-77776243D01*
X201948444Y-77778414D01*
X202044951Y-77967820D01*
X202169890Y-78139786D01*
X202320213Y-78290109D01*
X202492182Y-78415050D01*
X202500946Y-78419516D01*
X202551742Y-78467491D01*
X202568536Y-78535312D01*
X202545998Y-78601447D01*
X202500946Y-78640484D01*
X202492182Y-78644949D01*
X202320213Y-78769890D01*
X202169890Y-78920213D01*
X202044951Y-79092179D01*
X201948444Y-79281585D01*
X201882753Y-79483760D01*
X201849500Y-79693713D01*
X201849500Y-79906286D01*
X201878242Y-80087760D01*
X201882754Y-80116243D01*
X201947738Y-80316243D01*
X201948444Y-80318414D01*
X202044951Y-80507820D01*
X202169890Y-80679786D01*
X202320213Y-80830109D01*
X202492182Y-80955050D01*
X202500946Y-80959516D01*
X202551742Y-81007491D01*
X202568536Y-81075312D01*
X202545998Y-81141447D01*
X202500946Y-81180484D01*
X202492182Y-81184949D01*
X202320213Y-81309890D01*
X202169890Y-81460213D01*
X202044951Y-81632179D01*
X201948444Y-81821585D01*
X201882753Y-82023760D01*
X201868506Y-82113713D01*
X201849500Y-82233713D01*
X201849500Y-82446287D01*
X201882754Y-82656243D01*
X201909452Y-82738412D01*
X201948444Y-82858414D01*
X202044951Y-83047820D01*
X202169890Y-83219786D01*
X202320213Y-83370109D01*
X202492182Y-83495050D01*
X202500946Y-83499516D01*
X202551742Y-83547491D01*
X202568536Y-83615312D01*
X202545998Y-83681447D01*
X202500946Y-83720484D01*
X202492182Y-83724949D01*
X202320213Y-83849890D01*
X202169890Y-84000213D01*
X202044951Y-84172179D01*
X201948444Y-84361585D01*
X201882753Y-84563760D01*
X201868506Y-84653713D01*
X201849500Y-84773713D01*
X201849500Y-84986287D01*
X201882754Y-85196243D01*
X201909452Y-85278412D01*
X201948444Y-85398414D01*
X202044951Y-85587820D01*
X202169890Y-85759786D01*
X202320213Y-85910109D01*
X202492179Y-86035048D01*
X202492181Y-86035049D01*
X202492184Y-86035051D01*
X202501493Y-86039794D01*
X202552290Y-86087766D01*
X202569087Y-86155587D01*
X202546552Y-86221722D01*
X202501505Y-86260760D01*
X202492446Y-86265376D01*
X202492440Y-86265380D01*
X202438282Y-86304727D01*
X202438282Y-86304728D01*
X203070591Y-86937037D01*
X203007007Y-86954075D01*
X202892993Y-87019901D01*
X202799901Y-87112993D01*
X202734075Y-87227007D01*
X202717037Y-87290590D01*
X202084728Y-86658282D01*
X202084727Y-86658282D01*
X202045380Y-86712439D01*
X201948904Y-86901782D01*
X201883242Y-87103869D01*
X201883242Y-87103872D01*
X201850000Y-87313753D01*
X201850000Y-87526246D01*
X201883242Y-87736127D01*
X201883242Y-87736130D01*
X201948904Y-87938217D01*
X202045375Y-88127550D01*
X202084728Y-88181716D01*
X202717037Y-87549408D01*
X202734075Y-87612993D01*
X202799901Y-87727007D01*
X202892993Y-87820099D01*
X203007007Y-87885925D01*
X203070590Y-87902962D01*
X202438282Y-88535269D01*
X202438282Y-88535270D01*
X202492452Y-88574626D01*
X202492451Y-88574626D01*
X202501495Y-88579234D01*
X202552292Y-88627208D01*
X202569087Y-88695029D01*
X202546550Y-88761164D01*
X202501499Y-88800202D01*
X202492182Y-88804949D01*
X202320213Y-88929890D01*
X202169890Y-89080213D01*
X202044951Y-89252179D01*
X201948444Y-89441585D01*
X201882753Y-89643760D01*
X201868506Y-89733713D01*
X201849500Y-89853713D01*
X201849500Y-90066287D01*
X201882754Y-90276243D01*
X201937749Y-90445500D01*
X201948444Y-90478414D01*
X202044951Y-90667820D01*
X202169890Y-90839786D01*
X202320213Y-90990109D01*
X202492182Y-91115050D01*
X202500946Y-91119516D01*
X202551742Y-91167491D01*
X202568536Y-91235312D01*
X202545998Y-91301447D01*
X202500946Y-91340484D01*
X202492182Y-91344949D01*
X202320213Y-91469890D01*
X202169890Y-91620213D01*
X202044951Y-91792179D01*
X201948444Y-91981585D01*
X201882753Y-92183760D01*
X201874441Y-92236243D01*
X201849500Y-92393713D01*
X201849500Y-92606287D01*
X201856421Y-92649983D01*
X201880260Y-92800500D01*
X201882754Y-92816243D01*
X201946468Y-93012335D01*
X201948444Y-93018414D01*
X202044951Y-93207820D01*
X202169890Y-93379786D01*
X202320213Y-93530109D01*
X202492182Y-93655050D01*
X202500946Y-93659516D01*
X202551742Y-93707491D01*
X202568536Y-93775312D01*
X202545998Y-93841447D01*
X202500946Y-93880484D01*
X202492182Y-93884949D01*
X202320213Y-94009890D01*
X202169890Y-94160213D01*
X202044951Y-94332179D01*
X201948444Y-94521585D01*
X201882753Y-94723760D01*
X201849500Y-94933713D01*
X201849500Y-95146286D01*
X201877680Y-95324212D01*
X201882754Y-95356243D01*
X201945872Y-95550500D01*
X201948444Y-95558414D01*
X201969228Y-95599205D01*
X201982124Y-95667874D01*
X201955848Y-95732615D01*
X201898741Y-95772872D01*
X201858743Y-95779500D01*
X190662741Y-95779500D01*
X190662721Y-95779499D01*
X190656607Y-95779499D01*
X190533394Y-95779499D01*
X190432597Y-95799548D01*
X190432592Y-95799548D01*
X190412549Y-95803536D01*
X190379710Y-95817139D01*
X190379709Y-95817139D01*
X190298721Y-95850684D01*
X190298708Y-95850691D01*
X190196267Y-95919141D01*
X190196263Y-95919144D01*
X188941203Y-97174205D01*
X188879880Y-97207690D01*
X188877714Y-97208141D01*
X188766508Y-97230261D01*
X188766498Y-97230264D01*
X188620827Y-97290602D01*
X188620814Y-97290609D01*
X188489711Y-97378210D01*
X188489707Y-97378213D01*
X188378213Y-97489707D01*
X188378210Y-97489711D01*
X188290609Y-97620814D01*
X188290602Y-97620827D01*
X188230264Y-97766498D01*
X188230261Y-97766510D01*
X188199500Y-97921153D01*
X179070162Y-97921153D01*
X179117246Y-97776243D01*
X179150500Y-97566287D01*
X179150500Y-97353713D01*
X179117246Y-97143757D01*
X179051557Y-96941588D01*
X178955051Y-96752184D01*
X178955049Y-96752181D01*
X178955048Y-96752179D01*
X178830109Y-96580213D01*
X178679786Y-96429890D01*
X178507820Y-96304951D01*
X178507115Y-96304591D01*
X178499054Y-96300485D01*
X178448259Y-96252512D01*
X178431463Y-96184692D01*
X178453999Y-96118556D01*
X178499054Y-96079515D01*
X178507816Y-96075051D01*
X178594471Y-96012093D01*
X178679786Y-95950109D01*
X178679788Y-95950106D01*
X178679792Y-95950104D01*
X178830104Y-95799792D01*
X178830106Y-95799788D01*
X178830109Y-95799786D01*
X178955048Y-95627820D01*
X178955047Y-95627820D01*
X178955051Y-95627816D01*
X179051557Y-95438412D01*
X179117246Y-95236243D01*
X179150500Y-95026287D01*
X179150500Y-94813713D01*
X179117246Y-94603757D01*
X179051557Y-94401588D01*
X178955051Y-94212184D01*
X178955049Y-94212181D01*
X178955048Y-94212179D01*
X178830109Y-94040213D01*
X178679786Y-93889890D01*
X178507820Y-93764951D01*
X178507115Y-93764591D01*
X178499054Y-93760485D01*
X178448259Y-93712512D01*
X178431463Y-93644692D01*
X178453999Y-93578556D01*
X178499054Y-93539515D01*
X178507816Y-93535051D01*
X178590493Y-93474983D01*
X178679786Y-93410109D01*
X178679788Y-93410106D01*
X178679792Y-93410104D01*
X178830104Y-93259792D01*
X178830106Y-93259788D01*
X178830109Y-93259786D01*
X178955048Y-93087820D01*
X178955047Y-93087820D01*
X178955051Y-93087816D01*
X179051557Y-92898412D01*
X179117246Y-92696243D01*
X179150500Y-92486287D01*
X179150500Y-92273713D01*
X179117246Y-92063757D01*
X179051557Y-91861588D01*
X178955051Y-91672184D01*
X178955049Y-91672181D01*
X178955048Y-91672179D01*
X178830109Y-91500213D01*
X178679786Y-91349890D01*
X178507820Y-91224951D01*
X178505376Y-91223706D01*
X178499054Y-91220485D01*
X178448259Y-91172512D01*
X178431463Y-91104692D01*
X178453999Y-91038556D01*
X178499054Y-90999515D01*
X178507816Y-90995051D01*
X178552597Y-90962516D01*
X178679786Y-90870109D01*
X178679788Y-90870106D01*
X178679792Y-90870104D01*
X178830104Y-90719792D01*
X178830106Y-90719788D01*
X178830109Y-90719786D01*
X178955048Y-90547820D01*
X178955047Y-90547820D01*
X178955051Y-90547816D01*
X179051557Y-90358412D01*
X179117246Y-90156243D01*
X179150500Y-89946287D01*
X179150500Y-89733713D01*
X179117246Y-89523757D01*
X179051557Y-89321588D01*
X178955051Y-89132184D01*
X178955049Y-89132181D01*
X178955048Y-89132179D01*
X178830109Y-88960213D01*
X178679786Y-88809890D01*
X178507820Y-88684951D01*
X178506756Y-88684409D01*
X178499054Y-88680485D01*
X178448259Y-88632512D01*
X178431463Y-88564692D01*
X178453999Y-88498556D01*
X178499054Y-88459515D01*
X178507816Y-88455051D01*
X178529789Y-88439086D01*
X178679786Y-88330109D01*
X178679788Y-88330106D01*
X178679792Y-88330104D01*
X178830104Y-88179792D01*
X178830106Y-88179788D01*
X178830109Y-88179786D01*
X178955048Y-88007820D01*
X178955047Y-88007820D01*
X178955051Y-88007816D01*
X179051557Y-87818412D01*
X179117246Y-87616243D01*
X179150500Y-87406287D01*
X179150500Y-87193713D01*
X179117246Y-86983757D01*
X179051557Y-86781588D01*
X178955051Y-86592184D01*
X178955049Y-86592181D01*
X178955048Y-86592179D01*
X178830109Y-86420213D01*
X178679786Y-86269890D01*
X178507820Y-86144951D01*
X178507115Y-86144591D01*
X178499054Y-86140485D01*
X178448259Y-86092512D01*
X178431463Y-86024692D01*
X178453999Y-85958556D01*
X178499054Y-85919515D01*
X178507816Y-85915051D01*
X178529789Y-85899086D01*
X178679786Y-85790109D01*
X178679788Y-85790106D01*
X178679792Y-85790104D01*
X178830104Y-85639792D01*
X178830106Y-85639788D01*
X178830109Y-85639786D01*
X178955048Y-85467820D01*
X178955047Y-85467820D01*
X178955051Y-85467816D01*
X179051557Y-85278412D01*
X179117246Y-85076243D01*
X179150500Y-84866287D01*
X179150500Y-84653713D01*
X179117246Y-84443757D01*
X179051557Y-84241588D01*
X178955051Y-84052184D01*
X178955049Y-84052181D01*
X178955048Y-84052179D01*
X178830109Y-83880213D01*
X178679786Y-83729890D01*
X178507820Y-83604951D01*
X178507115Y-83604591D01*
X178499054Y-83600485D01*
X178448259Y-83552512D01*
X178431463Y-83484692D01*
X178453999Y-83418556D01*
X178499054Y-83379515D01*
X178507816Y-83375051D01*
X178529789Y-83359086D01*
X178679786Y-83250109D01*
X178679788Y-83250106D01*
X178679792Y-83250104D01*
X178830104Y-83099792D01*
X178830106Y-83099788D01*
X178830109Y-83099786D01*
X178955048Y-82927820D01*
X178955047Y-82927820D01*
X178955051Y-82927816D01*
X179051557Y-82738412D01*
X179117246Y-82536243D01*
X179150500Y-82326287D01*
X179150500Y-82113713D01*
X179117246Y-81903757D01*
X179051557Y-81701588D01*
X178955051Y-81512184D01*
X178955049Y-81512181D01*
X178955048Y-81512179D01*
X178830109Y-81340213D01*
X178679786Y-81189890D01*
X178507820Y-81064951D01*
X178507115Y-81064591D01*
X178499054Y-81060485D01*
X178448259Y-81012512D01*
X178431463Y-80944692D01*
X178453999Y-80878556D01*
X178499054Y-80839515D01*
X178507816Y-80835051D01*
X178535395Y-80815014D01*
X178679786Y-80710109D01*
X178679788Y-80710106D01*
X178679792Y-80710104D01*
X178830104Y-80559792D01*
X178830106Y-80559788D01*
X178830109Y-80559786D01*
X178955048Y-80387820D01*
X178955047Y-80387820D01*
X178955051Y-80387816D01*
X179051557Y-80198412D01*
X179117246Y-79996243D01*
X179150500Y-79786287D01*
X179150500Y-79573713D01*
X179117246Y-79363757D01*
X179051557Y-79161588D01*
X178955051Y-78972184D01*
X178955049Y-78972181D01*
X178955048Y-78972179D01*
X178830109Y-78800213D01*
X178679786Y-78649890D01*
X178507820Y-78524951D01*
X178507115Y-78524591D01*
X178499054Y-78520485D01*
X178448259Y-78472512D01*
X178431463Y-78404692D01*
X178453999Y-78338556D01*
X178499054Y-78299515D01*
X178507816Y-78295051D01*
X178529789Y-78279086D01*
X178679786Y-78170109D01*
X178679788Y-78170106D01*
X178679792Y-78170104D01*
X178830104Y-78019792D01*
X178830106Y-78019788D01*
X178830109Y-78019786D01*
X178955048Y-77847820D01*
X178955047Y-77847820D01*
X178955051Y-77847816D01*
X179051557Y-77658412D01*
X179117246Y-77456243D01*
X179150500Y-77246287D01*
X179150500Y-77033713D01*
X179117246Y-76823757D01*
X179051557Y-76621588D01*
X178955051Y-76432184D01*
X178955049Y-76432181D01*
X178955048Y-76432179D01*
X178830109Y-76260213D01*
X178716569Y-76146673D01*
X178683084Y-76085350D01*
X178688068Y-76015658D01*
X178729940Y-75959725D01*
X178760915Y-75942810D01*
X178892331Y-75893796D01*
X179007546Y-75807546D01*
X179093796Y-75692331D01*
X179144091Y-75557483D01*
X179150500Y-75497873D01*
X179150499Y-74533211D01*
X179150499Y-73702129D01*
X179150498Y-73702123D01*
X179150497Y-73702116D01*
X179144091Y-73642517D01*
X179119431Y-73576401D01*
X179093797Y-73507671D01*
X179093793Y-73507664D01*
X179007547Y-73392455D01*
X179007544Y-73392452D01*
X178892335Y-73306206D01*
X178892328Y-73306202D01*
X178757482Y-73255908D01*
X178757483Y-73255908D01*
X178697883Y-73249501D01*
X178697881Y-73249500D01*
X178697873Y-73249500D01*
X178697864Y-73249500D01*
X176902129Y-73249500D01*
X176902123Y-73249501D01*
X176842516Y-73255908D01*
X176707671Y-73306202D01*
X176707664Y-73306206D01*
X176592455Y-73392452D01*
X176592452Y-73392455D01*
X176506206Y-73507664D01*
X176506202Y-73507671D01*
X176455908Y-73642517D01*
X176450815Y-73689896D01*
X176449501Y-73702123D01*
X176449500Y-73702135D01*
X71000500Y-73702135D01*
X71000500Y-36762642D01*
X71020185Y-36695603D01*
X71072989Y-36649848D01*
X71111897Y-36639284D01*
X71202797Y-36629999D01*
X71369334Y-36574814D01*
X71518656Y-36482712D01*
X71642712Y-36358656D01*
X71734814Y-36209334D01*
X71789999Y-36042797D01*
X71800500Y-35940009D01*
X71800499Y-33739992D01*
X71789999Y-33637203D01*
X71734814Y-33470666D01*
X71642712Y-33321344D01*
X71518656Y-33197288D01*
X71369334Y-33105186D01*
X71202797Y-33050001D01*
X71202795Y-33050000D01*
X71100010Y-33039500D01*
X68899998Y-33039500D01*
X68899981Y-33039501D01*
X68797203Y-33050000D01*
X68797200Y-33050001D01*
X68630668Y-33105185D01*
X68630663Y-33105187D01*
X68481342Y-33197289D01*
X68357289Y-33321342D01*
X68265187Y-33470663D01*
X68265185Y-33470668D01*
X68260962Y-33483412D01*
X68210001Y-33637203D01*
X68210001Y-33637204D01*
X68210000Y-33637204D01*
X68199500Y-33739983D01*
X68199500Y-35940001D01*
X68199501Y-35940018D01*
X68210000Y-36042796D01*
X68210001Y-36042799D01*
X68265185Y-36209331D01*
X68265187Y-36209336D01*
X68300069Y-36265888D01*
X68357288Y-36358656D01*
X68481344Y-36482712D01*
X68630666Y-36574814D01*
X68797203Y-36629999D01*
X68888103Y-36639285D01*
X68952794Y-36665681D01*
X68992945Y-36722861D01*
X68999500Y-36762643D01*
X68999500Y-94074217D01*
X68979815Y-94141256D01*
X68963181Y-94161898D01*
X66490756Y-96634322D01*
X66429433Y-96667807D01*
X66359741Y-96662823D01*
X66303808Y-96620951D01*
X66285144Y-96584959D01*
X66283602Y-96580213D01*
X66251557Y-96481588D01*
X66155051Y-96292184D01*
X66155049Y-96292181D01*
X66155048Y-96292179D01*
X66030109Y-96120213D01*
X65879786Y-95969890D01*
X65707820Y-95844951D01*
X65699600Y-95840763D01*
X65699054Y-95840485D01*
X65648259Y-95792512D01*
X65631463Y-95724692D01*
X65653999Y-95658556D01*
X65699054Y-95619515D01*
X65707816Y-95615051D01*
X65785771Y-95558414D01*
X65879786Y-95490109D01*
X65879788Y-95490106D01*
X65879792Y-95490104D01*
X66030104Y-95339792D01*
X66030106Y-95339788D01*
X66030109Y-95339786D01*
X66155048Y-95167820D01*
X66155047Y-95167820D01*
X66155051Y-95167816D01*
X66251557Y-94978412D01*
X66317246Y-94776243D01*
X66350500Y-94566287D01*
X66350500Y-94353713D01*
X66317246Y-94143757D01*
X66251557Y-93941588D01*
X66155051Y-93752184D01*
X66155049Y-93752181D01*
X66155048Y-93752179D01*
X66030109Y-93580213D01*
X65916569Y-93466673D01*
X65883084Y-93405350D01*
X65888068Y-93335658D01*
X65929940Y-93279725D01*
X65960915Y-93262810D01*
X66092331Y-93213796D01*
X66207546Y-93127546D01*
X66293796Y-93012331D01*
X66344091Y-92877483D01*
X66350500Y-92817873D01*
X66350499Y-91022128D01*
X66344091Y-90962517D01*
X66309623Y-90870104D01*
X66293797Y-90827671D01*
X66293793Y-90827664D01*
X66207547Y-90712455D01*
X66207544Y-90712452D01*
X66092335Y-90626206D01*
X66092328Y-90626202D01*
X65957482Y-90575908D01*
X65957483Y-90575908D01*
X65897883Y-90569501D01*
X65897881Y-90569500D01*
X65897873Y-90569500D01*
X65897865Y-90569500D01*
X64574500Y-90569500D01*
X64507461Y-90549815D01*
X64461706Y-90497011D01*
X64450500Y-90445500D01*
X64450500Y-36775782D01*
X64459144Y-36746341D01*
X64465668Y-36716355D01*
X64469422Y-36711339D01*
X64470185Y-36708743D01*
X64486819Y-36688101D01*
X64522308Y-36652612D01*
X64583631Y-36619127D01*
X64626174Y-36617354D01*
X64702583Y-36627413D01*
X64801989Y-36640500D01*
X64801996Y-36640500D01*
X65038004Y-36640500D01*
X65038011Y-36640500D01*
X65272014Y-36609693D01*
X65499993Y-36548606D01*
X65718049Y-36458284D01*
X65922450Y-36340273D01*
X66109699Y-36196592D01*
X66276592Y-36029699D01*
X66420273Y-35842450D01*
X66538284Y-35638049D01*
X66628606Y-35419993D01*
X66689693Y-35192014D01*
X66720500Y-34958011D01*
X66720500Y-34721989D01*
X66689693Y-34487986D01*
X66628606Y-34260007D01*
X66538284Y-34041951D01*
X66538282Y-34041948D01*
X66538280Y-34041943D01*
X66496118Y-33968918D01*
X66420273Y-33837550D01*
X66276592Y-33650301D01*
X66276587Y-33650295D01*
X66109704Y-33483412D01*
X66109697Y-33483406D01*
X65922454Y-33339730D01*
X65922453Y-33339729D01*
X65922450Y-33339727D01*
X65840957Y-33292677D01*
X65718056Y-33221719D01*
X65718045Y-33221714D01*
X65499993Y-33131394D01*
X65272010Y-33070306D01*
X65038020Y-33039501D01*
X65038017Y-33039500D01*
X65038011Y-33039500D01*
X64801989Y-33039500D01*
X64801983Y-33039500D01*
X64801979Y-33039501D01*
X64567989Y-33070306D01*
X64340006Y-33131394D01*
X64121954Y-33221714D01*
X64121943Y-33221719D01*
X63917545Y-33339730D01*
X63730302Y-33483406D01*
X63730295Y-33483412D01*
X63563412Y-33650295D01*
X63563406Y-33650302D01*
X63419730Y-33837545D01*
X63301719Y-34041943D01*
X63301714Y-34041954D01*
X63211394Y-34260006D01*
X63150306Y-34487989D01*
X63119501Y-34721979D01*
X63119500Y-34721995D01*
X63119500Y-34958004D01*
X63119501Y-34958021D01*
X63142646Y-35133824D01*
X63131880Y-35202859D01*
X63107388Y-35237690D01*
X62925086Y-35419993D01*
X62812221Y-35532858D01*
X62812218Y-35532861D01*
X62742538Y-35602540D01*
X62672859Y-35672219D01*
X62563371Y-35836079D01*
X62563364Y-35836092D01*
X62487950Y-36018160D01*
X62487947Y-36018170D01*
X62449500Y-36211456D01*
X61441437Y-36211456D01*
X61496026Y-28623606D01*
X61516193Y-28556712D01*
X61569324Y-28511338D01*
X61620023Y-28500500D01*
X73779619Y-28500500D01*
X73794071Y-28501345D01*
G37*
%TD.AperFunction*%
%TD*%
M02*
